<?xml version="1.0" encoding="UTF-8"?>
<svg viewBox="0 0 92.32 102.395" xmlns="http://www.w3.org/2000/svg">
  <g fill="#ffc319" stroke-width="5">
    <path d="M-354.227-280.945a88.186 88.186 0 0 0-41.906 10.63l-1.174.635-.125 1.33a88.199 88.199 0 0 0 41.975 83.584l1.299.79 1.299-.79a88.198 88.198 0 0 0 41.974-83.584l-.125-1.33-1.174-.634a88.188 88.188 0 0 0-41.974-10.631h-.067zm.002 5h.067c13.372 0 26.51 3.29 38.361 9.455.164 2.123.299 4.249.299 6.379 0 28.512-14.65 54.922-38.66 70.162-24.01-15.24-38.66-41.65-38.66-70.162 0-2.13.135-4.256.299-6.38 11.83-6.154 24.945-9.444 38.294-9.454z" transform="translate(400.318 283.445)"/>
    <path d="M-354.229-283.445a90.684 90.684 0 0 0-43.093 10.931l-2.348 1.27-.25 2.66a90.683 90.683 0 0 0-.398 8.473 90.709 90.709 0 0 0 43.562 77.482l2.598 1.578 2.597-1.578a90.708 90.708 0 0 0 43.563-77.482c0-2.83-.134-5.657-.398-8.473l-.25-2.66-2.348-1.27a90.686 90.686 0 0 0-43.164-10.931h-.069zm10.424 5.644c2.864.349 5.685.932 8.494 1.567-2.806-.642-5.63-1.213-8.494-1.567zm-20.756.004c-2.88.358-5.72.934-8.543 1.582 2.825-.641 5.663-1.23 8.543-1.582zm30.803 1.856c6.504 1.595 12.793 3.999 18.785 7.084a86.604 86.604 0 0 0-18.785-7.084zm-40.83.006a86.61 86.61 0 0 0-18.767 7.084c5.986-3.084 12.27-5.488 18.767-7.084zm20.363 2.49h.067c12.496 0 24.763 3.03 35.937 8.605.108 1.592.223 3.182.223 4.729 0 27.097-13.697 52.164-36.16 67.076-22.463-14.912-36.16-39.979-36.16-67.076 0-1.547.114-3.137.222-4.729 11.155-5.565 23.397-8.595 35.871-8.605zm-39.539 4.783-1.142.596-.102 1.344c.036-.464.021-.93.065-1.393.382-.207.794-.346 1.18-.547zm79.213.002c.385.2.796.338 1.178.545.043.463.028.929.064 1.393l-.101-1.344zm-80.054 19.524c.251 1.942.727 3.823 1.109 5.732-.38-1.91-.859-3.79-1.11-5.732zm80.894 0c-.235 1.821-.691 3.584-1.04 5.377.35-1.793.804-3.556 1.04-5.377zm-78.828 10.603c.679 2.597 1.586 5.112 2.502 7.621-.913-2.511-1.826-5.023-2.502-7.62zm76.758.014c-.668 2.562-1.57 5.037-2.467 7.515.9-2.475 1.797-4.955 2.467-7.515zm-73.414 10.135c1.214 3.03 2.634 5.968 4.183 8.835-1.544-2.87-2.973-5.802-4.183-8.835zm70.074 0c-1.21 3.033-2.64 5.965-4.184 8.835 1.55-2.867 2.97-5.805 4.184-8.835zm-65.535 9.574a85.763 85.763 0 0 0 5.693 8.95 85.933 85.933 0 0 0 23.338 21.93c-9.22-5.876-17.101-13.322-23.338-21.93a85.69 85.69 0 0 1-5.693-8.95zm60.996 0a85.69 85.69 0 0 1-5.694 8.95c-6.236 8.608-14.117 16.054-23.337 21.93a85.931 85.931 0 0 0 23.337-21.93 85.76 85.76 0 0 0 5.694-8.95zm-31.787 31.004 1.289.818 1.289-.818c-.446.282-.837.629-1.29.904-.452-.275-.842-.622-1.288-.904z" transform="translate(400.318 283.445)"/>
  </g>
  <path fill="#00001e" d="M108.789 89.099a88.187 88.187 0 0 0-41.907 10.63l-1.173.635-.125 1.33a88.2 88.2 0 0 0 41.975 83.584l1.298.79 1.299-.79a88.199 88.199 0 0 0 41.974-83.583l-.125-1.33-1.173-.635a88.188 88.188 0 0 0-41.975-10.631h-.066z" transform="translate(-62.697 -86.386)"/>
  <path fill="#640000" d="M46.03 24.476A85.687 85.687 0 0 0 5.67 34.634a85.687 85.687 0 0 0 40.466 62.335 85.687 85.687 0 0 0 40.517-62.733 85.687 85.687 0 0 1-.05.398 85.687 85.687 0 0 0-40.467-10.158 85.687 85.687 0 0 0-.066 0 85.687 85.687 0 0 0-.039 0z"/>
  <path fill="#ffc319" d="M45.92 38.63a74.79 74.79 0 0 1 .157 0 74.79 74.79 0 0 1 .058 0 74.79 74.79 0 0 1 33.403 7.875 74.79 74.79 0 0 1-33.403 44.643A74.79 74.79 0 0 1 12.73 46.506a74.79 74.79 0 0 1 33.19-7.875zM27.516 7.042l-1.642.504-.812 1.894 1.218-.372zm16.588.69c-.562.015-1 .21-1.312.493-.312.283-.515.655-.656 1.025a4.246 4.246 0 0 0-.281 1.454v7.93c.016.548.11 1.04.281 1.457.14.363.344.706.656.972.312.285.75.439 1.312.424.562-.014.984-.19 1.297-.491.312-.283.53-.636.671-1.006.172-.426.266-.923.281-1.473v-7.932a4.122 4.122 0 0 0-.28-1.44c-.141-.363-.36-.723-.672-.99-.313-.266-.735-.438-1.297-.423zm5.794.024V21.51l2.078.148c1 .016 1.671-.404 2.061-1.087.39-.682.546-1.587.546-2.615 0-.692-.062-1.257-.187-1.696-.25-.897-.562-1.443-.983-1.755.39-.401.656-.756.827-1.192.172-.436.218-.919.218-1.573 0-1.365-.265-2.282-.78-2.9-.515-.618-1.296-.9-2.295-.974zm-10.995.288a2.4 2.4 0 0 0-.204.01c-.563.052-1 .276-1.312.58-.312.303-.515.687-.656 1.066a4.395 4.395 0 0 0-.28 1.47v7.92c.015.546.109 1.032.28 1.437.14.354.344.683.656.93.312.264.75.39 1.312.34.562-.05.984-.252 1.296-.573.313-.303.532-.67.672-1.049a4.41 4.41 0 0 0 .282-1.49v-1.849l-1.579.143v1.848c0 .202-.015.368-.062.5-.078.281-.22.513-.578.546a.378.378 0 0 1-.328-.117c-.156-.187-.25-.435-.266-.818v-7.922a2.46 2.46 0 0 1 .078-.501c.079-.246.219-.515.516-.542.171-.016.312.026.39.11.172.204.25.453.25.82v1.848l1.58-.145v-1.85c-.016-.529-.11-1.014-.282-1.42-.141-.353-.36-.699-.673-.944-.273-.215-.63-.352-1.092-.348zm16.68.169V21.95l1.687.202V8.424Zm-20.272.196-1.687.245v13.719l1.687-.235zm22.724.125 1.753 14.023 1.687.288L63.221 9.46l-1.637-.293-.843 7.38-.062.568-.094-.016-.062-.589-.844-7.683zm-25.067.226-4.873.954v2.064l1.59-.309v11.618l1.687-.315v-11.63l1.596-.31zm31.017.867v13.675l3.858.907V22.15l-2.168-.514v-3.752l1.56.375v-2.19l-1.56-.377v-3.586l2.168.532V10.58zm-19.881.028a.435.435 0 0 1 .344.138c.156.215.218.47.218.836v7.932a1.5 1.5 0 0 1-.062.496c-.063.276-.203.5-.5.507a.402.402 0 0 1-.328-.138c-.156-.197-.234-.451-.234-.836v-7.93c0-.184.016-.35.062-.497.063-.24.203-.5.5-.508zM27.75 9.81l-3.857 1.173v13.418l3.857-1.125v-2.034l-2.174.638v-3.693l1.564-.464v-2.161l-1.564.467V12.5l2.174-.657zm23.835.073c.14.01.468.015.75.26.28.246.5.71.5 1.665 0 .953-.22 1.386-.5 1.59-.282.204-.61.161-.75.151zm17.194.96v13.614l1.553.47v-7.71l.094.03.142.672 1.638 7.572 1.493.45V12.413l-1.54-.491v7.69l-.093-.029-.14-.67-1.64-7.59zm-47.812.85-1.682.537v13.54l3.92-1.183v-1.851l-2.238.68zm-2.337.768-4.874 1.903v2.026l1.584-.614v11.417l1.687-.619v-11.45l1.603-.62zm57.627 1.117a1.24 1.24 0 0 0-.913.465c-.361.449-.503 1.166-.503 1.885 0 .36.047.737.142 1.116.173.769.456 1.563.833 2.374.376.81.736 1.56 1.064 2.225.156.33.297.652.437.957.25.615.437 1.187.437 1.617 0 .84-.187 1.377-.686 1.188-.36-.137-.547-.495-.657-.967-.125-.46-.14-1.022-.14-1.578l-1.666-.46c0 .989.079 1.973.425 2.823.346.85.958 1.548 2.038 1.955.92.346 1.495.17 1.851-.302.357-.472.481-1.245.481-2.118 0-.714-.202-1.469-.496-2.243-.295-.774-.683-1.604-1.072-2.417-.328-.682-.655-1.33-.905-1.93-.25-.6-.422-1.133-.422-1.581 0-.771.14-1.235.578-1.079.266.106.437.425.547.826.109.419.124.908.124 1.337l1.646.472c0-.731-.093-1.642-.418-2.485-.326-.827-.916-1.546-1.93-1.935a1.962 1.962 0 0 0-.795-.145zm4.048 1.49v13.364l3.858 1.73v-1.998l-2.162-.98v-3.657l1.558.72V22.12l-1.558-.73v-3.494l2.162 1.032V16.93zm-68.375.154-2.061.973-1.714 14.036 1.623-.713.31-2.847 1.624-.724.314 2.585 1.654-.727zm39.655.18c.14.01.468-.005.75.259.28.264.5.822.5 1.944 0 1.122-.22 1.649-.5 1.872-.282.223-.61.162-.75.152zm-40.64 4.274.046.323.485 3.986-1.154.52.482-4.42.047-.366z"/>
  <path fill="#00001e" d="M42.525 24.577c-.174.003-.34.044-.498.11a2.18 2.18 0 0 0-.448.261 4.256 4.256 0 0 0-.398.339c-.248.235-.462.473-.64.616a80.207 80.207 0 0 1-2.385 2.006c-.63.504-1.113.86-1.51 1.12a7.72 7.72 0 0 1-.537.324c-.162.088-.31.159-.452.219a7.14 7.14 0 0 1-.826.28 2.507 2.507 0 0 0-.855.455 2.324 2.324 0 0 0-.365.372 2.06 2.06 0 0 0-.273.462c-.07.168-.12.35-.142.546-.022.196-.015.405.025.627.04.222.115.456.23.702.115.246.27.504.473.773.405.537.7.958.913 1.287.214.33.346.566.427.737.08.17.11.274.116.335.006.061-.01.08-.021.082a5.285 5.285 0 0 0-.637-.038c-.194 0-.37.013-.53.034a3.14 3.14 0 0 0-.428.087 2.527 2.527 0 0 0-.335.119 1.86 1.86 0 0 0-.416.246.777.777 0 0 0-.126.12c.19.105.357.209.504.31.146.1.273.198.382.292.218.187.367.357.468.501.101.144.155.262.183.344a.552.552 0 0 1 .031.128 4.626 4.626 0 0 0-.763.31 3.131 3.131 0 0 0-.55.362 2.33 2.33 0 0 0-.369.383c-.097.129-.17.256-.225.377a1.797 1.797 0 0 0-.155.622c-.01.159.01.257.01.257a3.99 3.99 0 0 1 .54-.22c.171-.054.333-.088.483-.1.15-.01.29 0 .415.038a.827.827 0 0 1 .335.189c.097.09.18.21.245.359.066.15.114.33.144.543.03.214.041.462.033.746a8.752 8.752 0 0 1-.091.964 9.016 9.016 0 0 1-.2 1c-.081.307-.176.59-.284.85-.108.26-.228.498-.36.714a4.363 4.363 0 0 1-.425.589 3.992 3.992 0 0 1-1.018.845 4.417 4.417 0 0 1-.575.281 5.2 5.2 0 0 1-.608.2 7.671 7.671 0 0 0-.712.137 6.89 6.89 0 0 0-1.279.45 6.516 6.516 0 0 0-1.588 1.054 7.26 7.26 0 0 0-.857.906c-.26.324-.497.67-.711 1.029-.215.36-.407.734-.58 1.118a13.45 13.45 0 0 0-.46 1.173 16.22 16.22 0 0 0-.356 1.194c-.102.398-.19.794-.263 1.182a21.5 21.5 0 0 0-.185 1.134 24.45 24.45 0 0 0-.222 3.385c.002.335.013.525.013.525l1.54-.48a6.1 6.1 0 0 1 .116.632c.031.227.054.467.072.713.034.492.045 1.004.044 1.469 0 .929-.05 1.667-.05 1.667l1.36-1.204a19.248 19.248 0 0 1 .938 1.676c.26.53.468 1.03.636 1.497.168.467.294.902.389 1.302.094.4.157.766.196 1.095a8 8 0 0 1 .057.875 6.25 6.25 0 0 1-.026.642c-.033.346-.086.529-.086.529.226-.374.461-.727.687-1.048.225-.32.44-.608.628-.849.374-.482.635-.777.635-.777l1.144 1.62 1.19-2.041c.067.25.115.532.149.817.033.285.054.57.066.825.024.51.015.894.015.894l1.318-.613c.103.38.177.728.227 1.048.05.32.076.61.085.872.008.263-.001.498-.023.708-.022.21-.055.393-.096.553a3.03 3.03 0 0 1-.134.412 2.207 2.207 0 0 1-.138.28c-.086.145-.152.21-.152.21.099.017.205.017.317.001a1.76 1.76 0 0 0 .35-.088c.12-.043.246-.099.374-.165.128-.067.259-.144.392-.23a8.47 8.47 0 0 0 .808-.604c.27-.226.537-.47.792-.715.51-.492.97-.992 1.302-1.37.332-.376.538-.63.538-.63l-.595 2.766c.179-.053.376-.142.584-.255.208-.114.427-.253.65-.407.445-.308.905-.68 1.321-1.037.415-.358.786-.702 1.053-.957.267-.255.43-.42.43-.42a7.317 7.317 0 0 1-.143.795c-.062.26-.137.517-.224.769a9.189 9.189 0 0 1-.291.739c-.107.24-.224.476-.347.706-.247.458-.522.893-.81 1.298-.288.406-.588.782-.883 1.125a17.134 17.134 0 0 1-1.595 1.616c-.427.38-.706.588-.706.588s.197-.018.549-.062c.351-.044.857-.113 1.475-.217a40.354 40.354 0 0 0 3.386-.72 33.961 33.961 0 0 0 2.664-.811c.453-.16.908-.334 1.358-.522.45-.189.896-.391 1.332-.609.436-.218.863-.45 1.274-.7a14.31 14.31 0 0 0 1.184-.797c.376-.283.732-.583 1.062-.901.33-.318.634-.655.907-1.01a7.933 7.933 0 0 0 .72-1.126l-.18 3.367s.072-.02.205-.07c.134-.05.33-.131.576-.252.247-.12.544-.28.883-.49.34-.21.719-.47 1.13-.79.41-.32.85-.7 1.312-1.148a18.2 18.2 0 0 0 .705-.727c.24-.26.482-.54.728-.839a23.668 23.668 0 0 0 1.492-2.041 28.509 28.509 0 0 0 1.489-2.578l.797 2.875s.174-.211.461-.602c.287-.39.687-.96 1.136-1.678a30.273 30.273 0 0 0 1.438-2.566 27.86 27.86 0 0 0 .715-1.557c.23-.545.45-1.116.651-1.707a22.64 22.64 0 0 0 .54-1.835c.156-.63.286-1.277.382-1.937a18.113 18.113 0 0 0 .177-2.017 16.124 16.124 0 0 0-.073-2.074 14.86 14.86 0 0 0-.371-2.105 14.279 14.279 0 0 0-1.218-3.167c-.184-.35-.385-.699-.605-1.046-.22-.347-.457-.693-.714-1.037a17.243 17.243 0 0 0-.83-1.023s.106-.168.279-.463a27.48 27.48 0 0 0 1.504-2.989c.137-.323.27-.66.396-1.002.125-.343.241-.693.343-1.045.103-.352.191-.706.261-1.057.07-.35.12-.699.148-1.04.027-.34.03-.672.004-.992a4.725 4.725 0 0 0-.061-.469 3.958 3.958 0 0 0-.109-.446 3.377 3.377 0 0 0-.159-.42 3.025 3.025 0 0 0-.487-.742 2.91 2.91 0 0 0-.335-.317 3.189 3.189 0 0 0-.402-.275 3.723 3.723 0 0 0-.47-.23 4.559 4.559 0 0 0-.546-.18 5.79 5.79 0 0 0-.623-.127 2.869 2.869 0 0 1-.443-.119 4.537 4.537 0 0 1-.472-.198 8.19 8.19 0 0 1-.998-.585 15.13 15.13 0 0 1-1.02-.758c-.336-.27-.665-.554-.976-.835a33.136 33.136 0 0 1-1.57-1.517c-.397-.408-.637-.676-.637-.676s-.227-.295-.593-.645a5.863 5.863 0 0 0-.643-.536 4.28 4.28 0 0 0-.38-.242 3.254 3.254 0 0 0-.408-.195 2.424 2.424 0 0 0-.427-.125 1.867 1.867 0 0 0-.439-.033 1.644 1.644 0 0 0-.88.3 2.336 2.336 0 0 0-.425.38 3.585 3.585 0 0 0-.404.562 5.91 5.91 0 0 0-.375.767 9.412 9.412 0 0 0-.337.994 6.427 6.427 0 0 0-1.373-.536 7.478 7.478 0 0 0-.7-.153 8.221 8.221 0 0 0-.7-.087 9.672 9.672 0 0 0-1.36-.013c-.44.025-.862.077-1.257.144a13.197 13.197 0 0 0-1.948.485c-.48.159-.764.284-.764.284.013-.032 0-.17-.03-.365a10.884 10.884 0 0 0-.34-1.44c-.07-.218-.144-.393-.212-.474a5.612 5.612 0 0 0-.327-.443 3.741 3.741 0 0 0-.315-.342 2.54 2.54 0 0 0-.304-.248 1.77 1.77 0 0 0-.291-.165 1.383 1.383 0 0 0-.28-.09 1.216 1.216 0 0 0-.268-.024z"/>
  <path fill="#ffc319" d="M48.461 28.982a8.198 8.198 0 0 0-1.742.251 9.687 9.687 0 0 0-.963.297c-.33.12-.67.264-1.02.433-.35.168-.708.362-1.075.585-.367.222-.742.473-1.126.754a64.84 64.84 0 0 0-1.988 1.515 35.19 35.19 0 0 0-1.423 1.188c-.39.346-.703.644-.951.9a7.458 7.458 0 0 0-.57.652 2.71 2.71 0 0 0-.284.44.825.825 0 0 0-.087.267.245.245 0 0 0 .015.132.094.094 0 0 0 .026.036c.26.231.474.466.649.7.174.235.31.47.413.698a3.428 3.428 0 0 1 .283 1.794 3.335 3.335 0 0 1-.07.405 2.318 2.318 0 0 1-.113.358 11.049 11.049 0 0 0-.3-.774 8.81 8.81 0 0 0-.312-.654c-.107-.2-.214-.38-.322-.544a5.175 5.175 0 0 0-.326-.443 4.051 4.051 0 0 0-.325-.352 3.256 3.256 0 0 0-.321-.27 2.533 2.533 0 0 0-.61-.335 2.09 2.09 0 0 0-.535-.126 1.953 1.953 0 0 0-.427.006c-.241.031-.385.098-.385.098.236.153.441.3.62.439.177.139.328.27.456.394.129.124.234.24.32.346.086.107.154.205.206.293.105.177.151.316.171.41.02.095.014.145.014.145a5.11 5.11 0 0 0-.601-.057 3.59 3.59 0 0 0-.488.016 2.612 2.612 0 0 0-.386.068c-.112.029-.21.063-.293.1a1.29 1.29 0 0 0-.348.218.597.597 0 0 0-.099.108c.172.014.333.04.485.075.151.035.293.08.426.133a2.71 2.71 0 0 1 1.197.935c.14.19.254.39.346.589.093.198.163.395.218.578a4.708 4.708 0 0 1 .178.978 6.3 6.3 0 0 0-.433-.397 2.943 2.943 0 0 0-.293-.217.759.759 0 0 0-.22-.11 8.966 8.966 0 0 1-.183 1.38 9.37 9.37 0 0 1-.352 1.237c-.139.387-.296.749-.462 1.082a10.653 10.653 0 0 1-1.447 2.186c-.252.292-.418.447-.418.447a10.21 10.21 0 0 0-1.374.346 8.994 8.994 0 0 0-1.203.492 8.389 8.389 0 0 0-1.935 1.331 8.565 8.565 0 0 0-.756.793c-.23.274-.44.557-.63.846-.19.288-.361.581-.515.876-.154.294-.29.59-.413.882a12.085 12.085 0 0 0-.561 1.693 13.784 13.784 0 0 0-.394 2.44c-.014.24-.014.375-.014.375.13-.205.255-.38.375-.53.12-.148.236-.271.345-.372.11-.101.213-.18.309-.242a1.47 1.47 0 0 1 .266-.14.936.936 0 0 1 .38-.072.474.474 0 0 1 .138.022c.155-.238.316-.446.48-.626a3.7 3.7 0 0 1 .504-.464 3.01 3.01 0 0 1 .52-.318 2.741 2.741 0 0 1 1.057-.266c.176-.01.35-.002.523.018.172.02.342.053.508.097.166.043.329.097.487.158.315.122.612.274.878.433a7.475 7.475 0 0 1 1.336 1.02c.183.12.36.256.533.405.173.149.34.311.502.485.162.173.319.358.47.55.151.194.297.395.438.603.28.415.54.855.777 1.299.237.444.452.893.644 1.326a24.723 24.723 0 0 1 .872 2.266c.196.591.296.965.296.965.042-.233.07-.476.086-.723a9.29 9.29 0 0 0 .016-.747 13.664 13.664 0 0 0-.105-1.417 16.71 16.71 0 0 0-.168-1.068c-.05-.265-.088-.422-.088-.422.188.153.379.334.57.534.19.2.38.419.566.648.371.457.726.953 1.033 1.411.308.459.568.879.752 1.184.184.306.29.497.29.497a6.561 6.561 0 0 0-.076-.739 9.924 9.924 0 0 0-.155-.771 16.48 16.48 0 0 0-.432-1.478 21.874 21.874 0 0 0-.605-1.57c.336.123.626.254.871.381.245.128.446.251.605.36.317.217.466.372.466.372a2.723 2.723 0 0 0-.139-.494 7.284 7.284 0 0 0-.253-.594 17.755 17.755 0 0 0-.686-1.282c-.482-.828-.942-1.515-.942-1.515.485.434.901.848 1.258 1.24.356.391.652.76.899 1.107.246.346.442.668.599.965.156.297.272.568.358.813.086.244.141.462.176.65s.05.348.053.477c.007.258-.028.394-.028.394a6.195 6.195 0 0 0-.735-.619 4.318 4.318 0 0 0-.583-.352 2.737 2.737 0 0 0-.383-.158 1.171 1.171 0 0 0-.138-.036c.152.356.272.699.364 1.026a7.6 7.6 0 0 1 .202.932 6.86 6.86 0 0 1 .059 1.532 5.771 5.771 0 0 1-.074.572 4.94 4.94 0 0 1-.096.425c-.063.231-.118.356-.118.356a15.074 15.074 0 0 0-.541-1.066 9.814 9.814 0 0 0-.498-.8 6.231 6.231 0 0 0-.445-.57 3.894 3.894 0 0 0-.384-.381 2.4 2.4 0 0 0-.314-.23 1.446 1.446 0 0 0-.235-.117c-.129-.049-.199-.048-.199-.048a8.76 8.76 0 0 1-.03 3.484 7.74 7.74 0 0 1-.287 1.018c-.086.238-.15.367-.15.367a51.073 51.073 0 0 0-1.421-3.749 48.038 48.038 0 0 0-1.31-2.82 35.625 35.625 0 0 0-.961-1.774c-.236-.405-.373-.617-.373-.617a13.469 13.469 0 0 1 .38 1.638c.093.546.156 1.087.194 1.613.04.527.054 1.04.052 1.529a21.806 21.806 0 0 1-.16 2.563c-.044.353-.09.661-.131.916-.084.51-.154.805-.154.805l1.295-1.813c.126.223.231.47.319.729.087.26.157.533.212.81a9.7 9.7 0 0 1 .126.836c.03.277.048.55.058.807.021.517.011.977-.005 1.308-.015.332-.037.534-.037.534a14.2 14.2 0 0 0 1.05-.715 12.778 12.778 0 0 0 1.564-1.386c.205-.216.384-.423.54-.615a8.23 8.23 0 0 0 .663-.937c.138-.228.198-.361.198-.361l.207 2.797a16.57 16.57 0 0 0 1.17-.785 14.672 14.672 0 0 0 1.875-1.644 12.481 12.481 0 0 0 1.333-1.673 11.252 11.252 0 0 0 .883-1.61 10.607 10.607 0 0 0 .523-1.463c.062-.227.114-.444.156-.649a9.24 9.24 0 0 0 .156-1.077c.026-.302.03-.544.027-.71a3.155 3.155 0 0 0-.011-.256c.123.065.24.149.351.247.111.097.217.209.315.327.197.238.366.507.506.76a7.341 7.341 0 0 1 .433.945 14.709 14.709 0 0 0-.023-1.908 12.99 12.99 0 0 0-.261-1.738 12.009 12.009 0 0 0-.767-2.3 11.813 11.813 0 0 0-1.117-1.954 12.93 12.93 0 0 0-.883-1.12c-.309-.35-.63-.678-.957-.983a15.284 15.284 0 0 0-.996-.852 16.573 16.573 0 0 0-1.003-.726 17.695 17.695 0 0 0-1.894-1.105 18.457 18.457 0 0 0-.825-.392c-.511-.228-.939-.39-1.239-.495a8.745 8.745 0 0 0-.471-.153 17.11 17.11 0 0 1 2.081.118c.325.04.64.09.945.149a11.764 11.764 0 0 1 2.473.754 10.496 10.496 0 0 1 1.368.717 9.941 9.941 0 0 1 2.14 1.804c.297.33.564.672.805 1.019.242.347.458.7.65 1.052.193.353.362.706.512 1.054a13.483 13.483 0 0 1 .674 1.975 14.528 14.528 0 0 1 .385 2.137c.031.31.035.487.035.487a8.911 8.911 0 0 0 1.103-.49c.356-.187.7-.396 1.034-.625.333-.23.655-.477.966-.74.31-.263.61-.541.897-.83a17.532 17.532 0 0 0 1.586-1.84 23.06 23.06 0 0 0 1.305-1.922 28.994 28.994 0 0 0 1.755-3.349c.392-.881.591-1.447.591-1.447a24.664 24.664 0 0 1-.13 2.401 21.52 21.52 0 0 1-.339 2.157 18.65 18.65 0 0 1-.52 1.924 16.828 16.828 0 0 1-.67 1.705 15.37 15.37 0 0 1-.79 1.498 14.752 14.752 0 0 1-1.82 2.423 14.474 14.474 0 0 1-2.873 2.387 14.481 14.481 0 0 1-1.66.905c-.486.224-.89.375-1.173.47a6.099 6.099 0 0 1-.445.136 13.581 13.581 0 0 1-.46 2.104 14.857 14.857 0 0 1-.71 1.892 16.472 16.472 0 0 1-.864 1.658 18.263 18.263 0 0 1-1.809 2.53c-.278.328-.534.606-.751.831-.435.451-.717.69-.717.69a12.69 12.69 0 0 0 1.296-.25 13.47 13.47 0 0 0 1.233-.37c.4-.141.79-.299 1.168-.47a16.41 16.41 0 0 0 2.128-1.166c.331-.213.65-.433.955-.658a20.268 20.268 0 0 0 1.676-1.375 22.98 22.98 0 0 0 2.335-2.463c.536-.658.82-1.085.82-1.085l-.092 4.431c.36-.25.702-.514 1.03-.79a14.8 14.8 0 0 0 .936-.861c.297-.297.579-.604.846-.916.267-.313.52-.632.76-.954a20.827 20.827 0 0 0 1.8-2.919 24.836 24.836 0 0 0 1.626-4.041c.237-.79.336-1.276.336-1.276l1.273 4.725c.262-.447.505-.889.73-1.323a25.439 25.439 0 0 0 1.143-2.531 19.87 19.87 0 0 0 .757-2.375 18.4 18.4 0 0 0 .415-2.217 16.476 16.476 0 0 0 .117-2.058 15.102 15.102 0 0 0-.138-1.896 14.534 14.534 0 0 0-1.16-4.022 15.14 15.14 0 0 0-1.405-2.464 15.925 15.925 0 0 0-2.068-2.405c-.19-.18-.36-.33-.5-.45a7.526 7.526 0 0 0-.455-.362s-.02.038-.086.104a2.033 2.033 0 0 1-.353.276 5.143 5.143 0 0 1-.766.392c-.34.145-.773.3-1.322.455a3.41 3.41 0 0 1-.535.106c-.173.02-.34.023-.502.013a2.574 2.574 0 0 1-1.313-.46 3.328 3.328 0 0 1-.377-.3 4.096 4.096 0 0 1-.349-.365 5.168 5.168 0 0 1-.321-.421 7.346 7.346 0 0 1-.566-.994c-.172-.36-.329-.747-.47-1.153a16.716 16.716 0 0 1-.384-1.267 23.03 23.03 0 0 1-.305-1.333c-.09-.45-.168-.904-.236-1.353a36.657 36.657 0 0 1-.176-1.325 44.738 44.738 0 0 1-.28-4.081c-.008-.413-.007-.651-.007-.651s-.064-.054-.187-.139a5.37 5.37 0 0 0-.545-.327 6.572 6.572 0 0 0-1.436-.553 7.107 7.107 0 0 0-1.337-.215 7.627 7.627 0 0 0-.774-.012z"/>
  <path fill="#ffc319" d="M55.602 27.115a.705.705 0 0 0-.256.078.884.884 0 0 0-.217.165 1.374 1.374 0 0 0-.18.235 2.2 2.2 0 0 0-.149.285 3.965 3.965 0 0 0-.211.652 7.469 7.469 0 0 0-.184 1.328c.008.913.023 1.786.047 2.616.024.83.057 1.615.103 2.354.045.738.103 1.43.177 2.07.073.64.163 1.229.272 1.763.054.268.113.521.178.76.064.24.134.466.209.676.075.211.156.407.243.588.087.182.18.348.279.499.1.15.206.285.318.404.113.12.233.223.36.31a1.901 1.901 0 0 0 .853.32c.158.02.323.02.495.002.172-.018.35-.054.532-.105.183-.052.37-.119.561-.2a6.83 6.83 0 0 0 .582-.28 10.99 10.99 0 0 0 1.196-.76c.4-.289.799-.608 1.185-.941a24.242 24.242 0 0 0 2.078-2.037c.292-.324.551-.63.765-.9.215-.272.384-.508.499-.693.114-.186.206-.361.277-.527.072-.166.122-.322.154-.469a1.67 1.67 0 0 0 .037-.412 1.165 1.165 0 0 0-.237-.667 1.411 1.411 0 0 0-.257-.259 1.993 1.993 0 0 0-.336-.21 2.937 2.937 0 0 0-.407-.167 4.784 4.784 0 0 1-.556-.233 12.91 12.91 0 0 1-.756-.4 21.5 21.5 0 0 1-.912-.549 27.256 27.256 0 0 1-2.103-1.477 27.364 27.364 0 0 1-1.1-.895 23.616 23.616 0 0 1-1.07-.975c-.346-.336-.68-.683-.993-1.038a4.958 4.958 0 0 0-.444-.447 2.62 2.62 0 0 0-.391-.29 1.374 1.374 0 0 0-.344-.148.822.822 0 0 0-.297-.026zm-13.358-.407c.06 0 .115.017.162.05l-2.188 5.244s-.606.466-1.359 1.116c-.376.326-.789.697-1.182 1.08-.392.382-.765.775-1.06 1.144 0 0-.252-.242-.56-.618a7.352 7.352 0 0 1-.477-.654 4.778 4.778 0 0 1-.413-.775 3.033 3.033 0 0 1-.135-.408 2.155 2.155 0 0 1-.063-.41 1.606 1.606 0 0 1 .027-.399c.026-.13.07-.257.136-.38a1.5 1.5 0 0 1 .263-.35c.111-.11.247-.214.41-.31.163-.095.353-.182.574-.26.22-.077.472-.145.757-.2a1.91 1.91 0 0 0 .346-.105 3.57 3.57 0 0 0 .39-.187c.27-.149.56-.343.851-.562a11.62 11.62 0 0 0 1.598-1.465 16.7 16.7 0 0 1 .639-.68c.207-.207.405-.389.588-.532a1.93 1.93 0 0 1 .496-.3.559.559 0 0 1 .2-.04zM65.287 38.8s-.648.7-2.383 2.486c0 0 .152.107.332.254.09.074.187.158.275.243.088.086.167.173.222.254zM28.758 64.724s.068.095.172.275c.104.18.244.443.388.78a8.27 8.27 0 0 1 .567 1.969c.043.264.074.543.09.835 0 0 .034-.003.09-.033a.736.736 0 0 0 .217-.19c.086-.106.18-.26.272-.488.045-.113.09-.245.132-.397.042-.153.082-.327.118-.524a4.751 4.751 0 0 0 .874 1.082c.06.105.117.215.167.328.05.114.092.231.124.351 0 0 .047-.018.115-.072a.995.995 0 0 0 .241-.287c.042-.072.083-.158.12-.26.036-.1.068-.218.092-.353.025-.136.041-.289.047-.463.006-.174 0-.368-.02-.585a5.593 5.593 0 0 1-.735-.189 7.192 7.192 0 0 1-.7-.271 8.614 8.614 0 0 1-.645-.322 11.076 11.076 0 0 1-1.412-.93 6.98 6.98 0 0 1-.314-.256zm-.984-2.991s.029.127.1.329a4.933 4.933 0 0 0 .658 1.24c.115.156.246.31.394.457.149.148.314.287.5.414.184.126.389.238.614.33 0 0-.024-.071-.089-.205a4.78 4.78 0 0 0-.335-.573 8.082 8.082 0 0 0-.69-.877 11.604 11.604 0 0 0-.512-.531 13.397 13.397 0 0 0-.64-.584zm5.943-1.192a8.13 8.13 0 0 0-1.033.319 7.034 7.034 0 0 0-.855.397 6.389 6.389 0 0 0-.69.437 5.875 5.875 0 0 0-.536.442 5.323 5.323 0 0 0-.395.408c-.11.126-.199.24-.268.337a2.526 2.526 0 0 0-.198.315c.4.328.766.604 1.1.834.335.23.637.414.91.557.274.143.519.245.737.311.218.066.41.096.578.096a1.05 1.05 0 0 0 .437-.09.878.878 0 0 0 .312-.243c.085-.104.153-.228.205-.367a2.25 2.25 0 0 0 .112-.459c.024-.165.036-.34.038-.52a5.966 5.966 0 0 0-.022-.55 9.861 9.861 0 0 0-.152-1.071 12.34 12.34 0 0 0-.28-1.153z"/>
  <path fill="#00001e" d="M44.02 32.898s-.315.077-.769.259c-.226.09-.488.207-.76.354a6.322 6.322 0 0 0-.835.531 5.124 5.124 0 0 0-.402.338c-.13.122-.254.252-.37.39a3.826 3.826 0 0 0-.323.446 3.448 3.448 0 0 0-.43 1.063 3.47 3.47 0 0 0-.076.623c-.007.219.005.448.04.688.034.24.09.492.172.755 0 0 .056-.215.185-.57a11.167 11.167 0 0 1 .62-1.405 10.772 10.772 0 0 1 1.157-1.779c.243-.302.512-.6.81-.886.298-.286.625-.558.982-.807zm.66 3.351c-.39.127-.744.261-1.066.402-.32.14-.609.286-.867.437a5.82 5.82 0 0 0-.687.465c-.2.158-.374.32-.524.483-.15.164-.275.328-.38.494-.103.165-.187.33-.252.495a2.802 2.802 0 0 0-.195.962 3.174 3.174 0 0 0 .096.866 4.164 4.164 0 0 0 .615 1.347s-.04-.263-.055-.659a7.136 7.136 0 0 1 .008-.676 5.55 5.55 0 0 1 .102-.778c.055-.264.134-.53.245-.78.056-.124.12-.245.193-.36.073-.114.156-.223.249-.324a2.055 2.055 0 0 1 1.141-.632 2.9 2.9 0 0 1 .534-.058s.046.17.062.44a3.063 3.063 0 0 1-.117 1.044s.098-.114.267-.286c.168-.172.407-.402.688-.637.14-.117.29-.235.448-.348a5.34 5.34 0 0 1 .49-.313c.168-.094.339-.175.51-.237.17-.062.342-.104.509-.12l-1.19 2.124s.164-.11.437-.266a10.75 10.75 0 0 1 1.087-.544c.216-.093.445-.181.68-.258a5.59 5.59 0 0 1 .716-.184c.239-.043.477-.067.707-.062a2.132 2.132 0 0 1 .658.105s-.468.257-1 .593c-.268.168-.55.357-.8.543-.25.186-.467.37-.6.53l1.173.184s-.156.022-.42.085a8.793 8.793 0 0 0-2.486 1.043c-.25.155-.503.331-.754.53a7.46 7.46 0 0 0-.735.668l1.886-.293s.035.123.116.31c.08.186.205.436.385.688.09.126.193.252.311.371.119.12.252.232.4.33a2.144 2.144 0 0 0 1.095.352c.087.007.192-.005.308-.033.116-.028.243-.073.375-.134a3.181 3.181 0 0 0 .8-.532c.126-.115.244-.242.348-.38a2.19 2.19 0 0 0 .26-.443c.068-.158.116-.324.135-.499a1.65 1.65 0 0 0-.028-.543s.03-.035.098-.08c.07-.047.177-.104.334-.151.157-.047.363-.083.626-.086.132 0 .278.005.44.024.162.018.34.048.534.091a4.261 4.261 0 0 0-.447-.645 4.01 4.01 0 0 0-1.933-1.268 3.91 3.91 0 0 0-.355-.09c-.2-.04-.323-.048-.323-.048l1.63-1.117a5.088 5.088 0 0 0-.463-.252 4.496 4.496 0 0 0-.448-.186 3.973 3.973 0 0 0-.84-.2 3.696 3.696 0 0 0-1.406.098 3.855 3.855 0 0 0-.935.386 2.62 2.62 0 0 0-.34.228c.151-.371.307-.67.455-.91.149-.239.29-.42.413-.553.122-.134.226-.222.299-.276a.82.82 0 0 1 .115-.074 2.38 2.38 0 0 0-.63-.063 2.968 2.968 0 0 0-.61.087c-.198.05-.39.116-.572.193a4.913 4.913 0 0 0-.514.254 6.05 6.05 0 0 0-.77.523 4.91 4.91 0 0 0-.292.25zm-8.244 8.326a4.13 4.13 0 0 1-.28.676 6.22 6.22 0 0 1-.394.653c-.144.212-.3.417-.46.611a13.093 13.093 0 0 1-1.675 1.673s.17-.028.428-.12a3.774 3.774 0 0 0 .947-.502 3.32 3.32 0 0 0 1.146-1.484c.055-.14.104-.287.145-.444a4.502 4.502 0 0 0 .143-1.062zm3.886-.159s-.146.234-.293.6a4.56 4.56 0 0 0-.205.636 3.501 3.501 0 0 0-.1.76c-.002.133.005.268.023.403s.047.27.09.405a2.223 2.223 0 0 0 .43.781c.105.124.227.243.37.356.142.114.305.221.49.322.184.1.39.192.622.276.232.084.488.158.77.222a3.534 3.534 0 0 1-.778-.583 3.782 3.782 0 0 1-.57-.717 4.865 4.865 0 0 1-.393-.786 6.075 6.075 0 0 1-.25-.789 7.186 7.186 0 0 1-.198-1.327c-.02-.344-.008-.559-.008-.559zm1.41 1.96s.024.158.108.413a4.998 4.998 0 0 0 .902 1.609c.171.207.371.416.604.62.233.203.5.401.803.586.303.185.643.356 1.026.507.238.097.481.186.734.287.252.1.513.212.785.354.273.142.557.314.855.534a8.519 8.519 0 0 1 .94.821 1.351 1.351 0 0 0-.067-.331 2.033 2.033 0 0 0-.16-.357 2.865 2.865 0 0 0-.247-.368 3.743 3.743 0 0 0-.334-.37 4.56 4.56 0 0 0-.417-.358 5.29 5.29 0 0 0-.498-.335 5.903 5.903 0 0 0-.575-.3 6.44 6.44 0 0 0-.65-.254 4.215 4.215 0 0 1-.69-.305 6.754 6.754 0 0 1-.678-.428 9.872 9.872 0 0 1-.642-.5c-.206-.174-.4-.35-.582-.523-.361-.344-.666-.67-.88-.91-.214-.239-.337-.392-.337-.392zM33.8 55.509a6.391 6.391 0 0 0-.749.023s.256.076.667.219c.411.143.978.354 1.602.626.312.135.638.286.966.45.327.165.657.344.976.536.319.192.627.397.912.614.286.217.547.446.774.687a4.528 4.528 0 0 0-.268-.636 4.143 4.143 0 0 0-.732-1.007 4.21 4.21 0 0 0-.439-.384 4.565 4.565 0 0 0-.472-.315 5.1 5.1 0 0 0-.494-.25 6.097 6.097 0 0 0-1.003-.34 7.529 7.529 0 0 0-.946-.17 8.415 8.415 0 0 0-.794-.053zm1.882-2.281a6.133 6.133 0 0 0-1.53.24 5.544 5.544 0 0 0-.71.259c-.386.172-.592.322-.592.322.078 0 .337-.063.754-.126a11.2 11.2 0 0 1 1.71-.128c.356-.001.748.014 1.17.052.424.039.878.1 1.362.194.484.093.996.217 1.535.38.538.164 1.103.367 1.692.617-.308-.212-.61-.401-.905-.57a11.058 11.058 0 0 0-.863-.445 9.925 9.925 0 0 0-.82-.335 8.627 8.627 0 0 0-.776-.234 7.818 7.818 0 0 0-1.403-.218 6.644 6.644 0 0 0-.624-.007zm.228-2.259a5.448 5.448 0 0 0-1.877.335 6.12 6.12 0 0 0-.542.227 6.815 6.815 0 0 0-.95.551 7.735 7.735 0 0 0-1.318 1.151c-.301.33-.46.56-.46.56s.138-.148.414-.374c.138-.113.31-.246.517-.389a10.388 10.388 0 0 1 1.651-.92c.344-.152.722-.297 1.133-.427.412-.13.858-.245 1.337-.336.48-.09.993-.157 1.54-.192a5.935 5.935 0 0 0-.741-.142 5.565 5.565 0 0 0-.704-.044zm-4.543-1.151a7.568 7.568 0 0 0-1.318.768 6.965 6.965 0 0 0-1.759 1.88c-.21.328-.381.653-.522.965a7.965 7.965 0 0 0-.527 1.6c-.087.41-.104.666-.104.666s.124-.26.346-.677c.222-.416.542-.99.93-1.617.195-.313.408-.64.634-.968.226-.328.466-.656.716-.972.25-.316.512-.62.78-.898.269-.278.544-.531.824-.747z"/>
  <path fill="#ffe680" d="M49.305 41.414c.127.01.225.03.299.054.149.045.204.1.204.1.013.257.006.497-.032.713a1.72 1.72 0 0 1-.081.304 1.23 1.23 0 0 1-.135.263 1.05 1.05 0 0 1-.455.379c-.1.045-.211.08-.336.105a2.339 2.339 0 0 1-.417.04 1.253 1.253 0 0 1-.76-.234 1.54 1.54 0 0 1-.27-.247 2.036 2.036 0 0 1-.204-.286 2.773 2.773 0 0 1-.244-.536c-.05-.146-.07-.244-.07-.244s.16-.103.395-.198a2.32 2.32 0 0 1 .397-.123c.144-.03.296-.043.444-.027 0 0-.036.023-.082.066a.687.687 0 0 0-.143.18.462.462 0 0 0-.045.126.38.38 0 0 0 0 .144.477.477 0 0 0 .06.161.78.78 0 0 0 .144.174c.064.06.138.104.217.132a.72.72 0 0 0 .245.04.798.798 0 0 0 .456-.149.563.563 0 0 0 .152-.169.46.46 0 0 0 .062-.218.565.565 0 0 0-.059-.257 1.05 1.05 0 0 0-.21-.285 2.7 2.7 0 0 1 .469-.008zM29.577 57.655a5.751 5.751 0 0 0-.508.003c-.17.009-.34.026-.508.054a4.049 4.049 0 0 0-.5.114 3.512 3.512 0 0 0-.483.181 3.224 3.224 0 0 0-.88.605 5.87 5.87 0 0 0 .236 1c.056.167.124.337.205.489 0 0 .1-.129.242-.272.071-.071.152-.147.237-.211a.956.956 0 0 1 .254-.147.371.371 0 0 1 .12-.022.23.23 0 0 1 .2.11c.026.039.049.09.067.154.036.128.053.31.044.56a7.43 7.43 0 0 1-.115.967l.712.79s-.003-.36.036-.704c.02-.172.05-.341.095-.46a.347.347 0 0 1 .082-.133.105.105 0 0 1 .11-.024s-.012.272.014.609c.013.168.036.353.074.528.04.174.094.34.172.47l1.269-.817s-.052-.066-.116-.175a1.95 1.95 0 0 1-.192-.433 1.307 1.307 0 0 1-.05-.27.945.945 0 0 1 .02-.28.814.814 0 0 1 .117-.274.995.995 0 0 1 .247-.251.897.897 0 0 1 .315-.151.752.752 0 0 1 .298-.012.942.942 0 0 1 .274.09c.087.044.168.098.243.157a2.232 2.232 0 0 1 .488.55s.076-.015.178-.065a.87.87 0 0 0 .458-.523c.033-.099.052-.213.053-.346a1.796 1.796 0 0 0-.062-.455 3.301 3.301 0 0 0-.212-.579s-.248-.122-.653-.273a10.087 10.087 0 0 0-.714-.235 8.964 8.964 0 0 0-.883-.209 7.038 7.038 0 0 0-.984-.11z"/>
  <path fill="#fff" d="M29.752 55.962a1.927 1.927 0 0 0-.574.09 1.767 1.767 0 0 0-.951.734s.127-.041.351-.087a6.342 6.342 0 0 1 2.276-.033 5.969 5.969 0 0 1 1.568.495 8.537 8.537 0 0 0-.55-.41 6.389 6.389 0 0 0-.508-.312 4.798 4.798 0 0 0-.464-.226 3.661 3.661 0 0 0-.423-.148 2.842 2.842 0 0 0-.382-.08 2.364 2.364 0 0 0-.343-.024z"/>
  <path fill="#640000" d="M41.375 81.205h-1.02v-.482q0-.349.057-.67.057-.33.208-.576.15-.246.415-.397.265-.15.68-.15.387 0 .652.14.274.133.425.36.16.236.217.557.066.311.066.67 0 .53-.18 1.143-.17.604-.415 1.19-.255.595-.529 1.105t-.472.84h1.615v1.011h-2.767v-1.01q.236-.36.444-.728.217-.368.406-.736.16-.312.311-.661.152-.35.274-.709.123-.359.199-.708.085-.35.094-.67 0-.142-.009-.293T42 80.157q-.038-.123-.104-.199-.066-.085-.18-.085-.103 0-.17.076-.066.066-.103.18-.038.122-.057.273-.009.152-.009.321zm5.1-.775v4.09q-.02.434-.17.755-.066.142-.17.274-.095.133-.236.236-.293.237-.784.237-.5 0-.793-.237-.142-.103-.236-.236-.095-.132-.161-.274-.151-.32-.17-.755v-4.09q.019-.424.17-.745.066-.142.16-.274.095-.142.237-.246.141-.104.34-.17.198-.066.453-.066t.444.066q.198.066.34.17.141.104.236.246.104.132.17.274.15.32.17.746zm-1.02 4.09v-4.09q0-.273-.132-.434-.076-.075-.208-.075t-.208.085q-.066.075-.094.17-.038.104-.038.255v4.089q0 .274.142.434.075.076.198.076.132 0 .198-.076.076-.075.104-.18.038-.084.038-.254zm2.125-4.014h-.68v-.651q.32-.066.52-.208.207-.142.34-.283.131-.161.226-.36h.614v6.942h-1.02zm4.363 3.145v.812q0 .047-.01.18-.008.132-.046.302-.038.18-.123.368-.085.18-.236.34-.151.151-.387.265-.227.104-.558.104-.33 0-.566-.104-.227-.114-.378-.265-.151-.16-.236-.34-.085-.189-.123-.368-.038-.17-.047-.302-.01-.133-.01-.18v-.812q0-.387.133-.755.132-.369.397-.614-.236-.236-.36-.576-.112-.34-.112-.7v-.585q0-.066.028-.302.028-.246.151-.51.132-.264.387-.472.255-.208.737-.208.481 0 .746.208.264.208.387.472.132.264.151.51.02.236.02.302v.586q0 .359-.124.699-.113.34-.35.576.265.245.398.614.132.368.132.755zm-1.058-2.87q0-.246-.019-.416-.009-.18-.028-.303-.057-.236-.255-.236-.17 0-.227.208-.028.104-.047.312-.019.198-.028.444 0 .236.009.453.019.208.047.33.047.255.246.255.198 0 .255-.255.018-.122.028-.32.019-.199.019-.473zm.066 3.276q0-.311-.019-.538-.009-.236-.028-.387-.057-.303-.321-.303t-.312.303q-.028.15-.047.396-.009.236-.009.5.01.265.028.492.02.217.057.33.066.237.283.237.265 0 .322-.274.018-.133.028-.321.019-.199.019-.435z" aria-label="2018"/>
</svg>
