<?xml version="1.0" encoding="UTF-8" standalone="no"?>
<svg
   xmlns:dc="http://purl.org/dc/elements/1.1/"
   xmlns:cc="http://creativecommons.org/ns#"
   xmlns:rdf="http://www.w3.org/1999/02/22-rdf-syntax-ns#"
   xmlns:svg="http://www.w3.org/2000/svg"
   xmlns="http://www.w3.org/2000/svg"
   xmlns:sodipodi="http://sodipodi.sourceforge.net/DTD/sodipodi-0.dtd"
   xmlns:inkscape="http://www.inkscape.org/namespaces/inkscape"
   width="210mm"
   height="297mm"
   viewBox="0 0 210 297"
   version="1.1"
   id="svg2388"
   inkscape:version="1.0.1 (3bc2e813f5, 2020-09-07)"
   sodipodi:docname="Escudo Atlético Bivense pronto.svg">
  <defs
     id="defs2382" />
  <sodipodi:namedview
     id="base"
     pagecolor="#ffffff"
     bordercolor="#666666"
     borderopacity="1.0"
     inkscape:pageopacity="0.0"
     inkscape:pageshadow="2"
     inkscape:zoom="0.7"
     inkscape:cx="244.26911"
     inkscape:cy="629.07353"
     inkscape:document-units="mm"
     inkscape:current-layer="layer1"
     inkscape:document-rotation="0"
     showgrid="false"
     inkscape:window-width="1431"
     inkscape:window-height="1019"
     inkscape:window-x="96"
     inkscape:window-y="0"
     inkscape:window-maximized="0" />
  <metadata
     id="metadata2385">
    <rdf:RDF>
      <cc:Work
         rdf:about="">
        <dc:format>image/svg+xml</dc:format>
        <dc:type
           rdf:resource="http://purl.org/dc/dcmitype/StillImage" />
        <dc:title></dc:title>
      </cc:Work>
    </rdf:RDF>
  </metadata>
  <g
     inkscape:label="Layer 1"
     inkscape:groupmode="layer"
     id="layer1">
    <g
       id="g1939"
       style="fill:#ffc319;fill-opacity:1;stroke:none;stroke-width:5;stroke-miterlimit:4;stroke-dasharray:none"
       transform="translate(463.01535,369.83138)">
      <path
         style="color:#000000;font-style:normal;font-variant:normal;font-weight:normal;font-stretch:normal;font-size:medium;line-height:normal;font-family:sans-serif;font-variant-ligatures:normal;font-variant-position:normal;font-variant-caps:normal;font-variant-numeric:normal;font-variant-alternates:normal;font-variant-east-asian:normal;font-feature-settings:normal;font-variation-settings:normal;text-indent:0;text-align:start;text-decoration:none;text-decoration-line:none;text-decoration-style:solid;text-decoration-color:#000000;letter-spacing:normal;word-spacing:normal;text-transform:none;writing-mode:lr-tb;direction:ltr;text-orientation:mixed;dominant-baseline:auto;baseline-shift:baseline;text-anchor:start;white-space:normal;shape-padding:0;shape-margin:0;inline-size:0;clip-rule:nonzero;display:inline;overflow:visible;visibility:visible;isolation:auto;mix-blend-mode:normal;color-interpolation:sRGB;color-interpolation-filters:linearRGB;solid-color:#000000;solid-opacity:1;vector-effect:none;fill:#ffc319;fill-opacity:1;fill-rule:nonzero;stroke:none;stroke-width:5;stroke-linecap:square;stroke-linejoin:miter;stroke-miterlimit:4;stroke-dasharray:none;stroke-dashoffset:0;stroke-opacity:1;color-rendering:auto;image-rendering:auto;shape-rendering:auto;text-rendering:auto;enable-background:accumulate;stop-color:#000000;stop-opacity:1"
         d="m -354.22656,-280.94531 c -14.63439,0.0114 -29.03596,3.66514 -41.90625,10.63086 l -1.17383,0.63476 -0.125,1.33008 c -0.25714,2.7389 -0.3866,5.48733 -0.38672,8.23828 8e-5,30.78365 16.06049,59.34887 42.36133,75.34571 l 1.29883,0.78906 1.29882,-0.78906 c 26.30105,-15.99671 42.36115,-44.56196 42.36133,-75.34571 6e-5,-2.75094 -0.12975,-5.49937 -0.38672,-8.23828 l -0.125,-1.33008 -1.17382,-0.63476 c -12.89056,-6.97668 -27.31718,-10.63074 -41.97461,-10.63086 h -0.0664 z m 0.002,5 h 0.0664 c 13.37184,1.1e-4 26.51054,3.29006 38.36132,9.45508 0.16335,2.12334 0.29887,4.24894 0.29883,6.3789 -1.7e-4,28.51201 -14.65057,54.92227 -38.66015,70.16211 -24.0094,-15.23995 -38.66009,-41.6502 -38.66016,-70.16211 9e-5,-2.12996 0.13535,-4.25557 0.29883,-6.3789 11.83095,-6.1547 24.94551,-9.44435 38.29492,-9.45508 z"
         id="path1941" />
      <path
         style="color:#000000;font-style:normal;font-variant:normal;font-weight:normal;font-stretch:normal;font-size:medium;line-height:normal;font-family:sans-serif;font-variant-ligatures:normal;font-variant-position:normal;font-variant-caps:normal;font-variant-numeric:normal;font-variant-alternates:normal;font-variant-east-asian:normal;font-feature-settings:normal;font-variation-settings:normal;text-indent:0;text-align:start;text-decoration:none;text-decoration-line:none;text-decoration-style:solid;text-decoration-color:#000000;letter-spacing:normal;word-spacing:normal;text-transform:none;writing-mode:lr-tb;direction:ltr;text-orientation:mixed;dominant-baseline:auto;baseline-shift:baseline;text-anchor:start;white-space:normal;shape-padding:0;shape-margin:0;inline-size:0;clip-rule:nonzero;display:inline;overflow:visible;visibility:visible;isolation:auto;mix-blend-mode:normal;color-interpolation:sRGB;color-interpolation-filters:linearRGB;solid-color:#000000;solid-opacity:1;vector-effect:none;fill:#ffc319;fill-opacity:1;fill-rule:nonzero;stroke:none;stroke-width:5;stroke-linecap:square;stroke-linejoin:miter;stroke-miterlimit:4;stroke-dasharray:none;stroke-dashoffset:0;stroke-opacity:1;color-rendering:auto;image-rendering:auto;shape-rendering:auto;text-rendering:auto;enable-background:accumulate;stop-color:#000000;stop-opacity:1"
         d="m -354.22852,-283.44531 c -15.04922,0.0117 -29.85872,3.76851 -43.09375,10.93164 l -2.34765,1.26953 -0.25,2.66016 c -0.26439,2.81611 -0.39832,5.64334 -0.39844,8.47265 8e-5,31.65318 16.51879,61.03375 43.5625,77.48242 l 2.59766,1.57813 2.59765,-1.57813 c 27.04394,-16.44854 43.56232,-45.82917 43.5625,-77.48242 6e-5,-2.82962 -0.13425,-5.65684 -0.39843,-8.47265 l -0.25,-2.66016 -2.34766,-1.26953 c -13.25589,-7.17441 -28.09115,-10.93152 -43.16406,-10.93164 h -0.0664 -0.002 z m 10.42383,5.64453 c 2.86415,0.34877 5.68501,0.9321 8.49414,1.5664 -2.80655,-0.64153 -5.63108,-1.21213 -8.49414,-1.5664 z m -20.75586,0.004 c -2.87968,0.35802 -5.72067,0.93343 -8.54297,1.58204 2.82446,-0.64121 5.66265,-1.22961 8.54297,-1.58204 z m 30.80274,1.85547 c 6.50361,1.59513 12.7931,3.99911 18.78515,7.08399 -5.98827,-3.08375 -12.28828,-5.47206 -18.78515,-7.08399 z m -40.83008,0.006 c -6.49093,1.6129 -12.78478,4.00192 -18.76758,7.08399 5.98681,-3.08336 12.26966,-5.4879 18.76758,-7.08399 z m 20.36328,2.49024 h 0.0664 c 12.49661,10e-5 24.76306,3.03019 35.9375,8.60547 0.10791,1.59173 0.22268,3.18184 0.22265,4.72851 -1.6e-4,27.09746 -13.69711,52.16391 -36.16015,67.07617 -22.4629,-14.91237 -36.16009,-39.97883 -36.16016,-67.07617 7e-5,-1.5469 0.11476,-3.13691 0.22266,-4.72851 11.15448,-5.56533 23.39694,-8.59514 35.87109,-8.60547 z m -39.53906,4.7832 -1.14258,0.5957 -0.10156,1.34375 c 0.036,-0.46358 0.021,-0.92949 0.0645,-1.39257 0.38264,-0.2071 0.7943,-0.34582 1.17969,-0.54688 z m 79.21289,0.002 c 0.38461,0.20067 0.79586,0.33825 1.17773,0.54493 0.0435,0.46314 0.0285,0.92896 0.0645,1.39257 l -0.10157,-1.34375 z m -80.05469,19.52344 c 0.25166,1.94211 0.72725,3.82383 1.10938,5.73242 -0.38061,-1.90921 -0.85876,-3.79019 -1.10938,-5.73242 z m 80.89453,0 c -0.23507,1.82182 -0.69148,3.58403 -1.04101,5.37695 0.35095,-1.79244 0.80494,-3.55518 1.04101,-5.37695 z m -78.82812,10.60352 c 0.67898,2.59668 1.58618,5.11142 2.50195,7.62109 -0.91255,-2.51162 -1.82559,-5.0231 -2.50195,-7.62109 z m 76.75781,0.0137 c -0.66741,2.5619 -1.56965,5.03764 -2.4668,7.51562 0.90026,-2.47587 1.79683,-4.95522 2.4668,-7.51562 z m -73.41406,10.13476 c 1.21409,3.03065 2.63462,5.96886 4.18359,8.83594 -1.54456,-2.8704 -2.97355,-5.80244 -4.18359,-8.83594 z m 70.07422,0 c -1.21003,3.0335 -2.63905,5.96554 -4.1836,8.83594 1.54897,-2.86708 2.96951,-5.80529 4.1836,-8.83594 z m -65.53516,9.57422 c 1.71065,3.09518 3.6102,6.08611 5.69336,8.95117 6.24524,8.58938 14.12368,16.05733 23.33789,21.92969 -9.21986,-5.87627 -17.10148,-13.32278 -23.33789,-21.92969 -2.07927,-2.8696 -3.98695,-5.85131 -5.69336,-8.95117 z m 60.99609,0 c -1.7064,3.09986 -3.6141,6.08157 -5.69336,8.95117 -6.23638,8.6069 -14.11796,16.05347 -23.33789,21.92969 9.21429,-5.87232 17.09266,-13.34031 23.33789,-21.92969 2.08316,-2.86506 3.98272,-5.85599 5.69336,-8.95117 z m -31.78711,31.00391 1.28907,0.81836 1.28906,-0.81836 c -0.44617,0.28278 -0.83662,0.62911 -1.28906,0.9043 -0.45244,-0.27519 -0.8429,-0.62152 -1.28907,-0.9043 z"
         id="path1943" />
    </g>
    <path
       style="color:#000000;font-style:normal;font-variant:normal;font-weight:normal;font-stretch:normal;font-size:medium;line-height:normal;font-family:sans-serif;font-variant-ligatures:normal;font-variant-position:normal;font-variant-caps:normal;font-variant-numeric:normal;font-variant-alternates:normal;font-variant-east-asian:normal;font-feature-settings:normal;font-variation-settings:normal;text-indent:0;text-align:start;text-decoration:none;text-decoration-line:none;text-decoration-style:solid;text-decoration-color:#000000;letter-spacing:normal;word-spacing:normal;text-transform:none;writing-mode:lr-tb;direction:ltr;text-orientation:mixed;dominant-baseline:auto;baseline-shift:baseline;text-anchor:start;white-space:normal;shape-padding:0;shape-margin:0;inline-size:0;clip-rule:nonzero;display:inline;overflow:visible;visibility:visible;isolation:auto;mix-blend-mode:normal;color-interpolation:sRGB;color-interpolation-filters:linearRGB;solid-color:#000000;solid-opacity:1;vector-effect:none;fill:#00001e;fill-opacity:1;fill-rule:nonzero;stroke:none;stroke-width:4.99999;stroke-linecap:square;stroke-linejoin:miter;stroke-miterlimit:4;stroke-dasharray:none;stroke-dashoffset:0;stroke-opacity:1;color-rendering:auto;image-rendering:auto;shape-rendering:auto;text-rendering:auto;enable-background:accumulate;stop-color:#000000"
       d="m 108.78892,89.09898 c -14.634401,0.0114 -29.036201,3.66514 -41.906481,10.63085 l -1.17356,0.63461 -0.12507,1.33014 c -0.25715,2.73891 -0.38693,5.4873 -0.38706,8.23825 8e-5,30.78366 16.06092,59.34896 42.361751,75.3458 l 1.29863,0.7891 1.29862,-0.7891 c 26.30107,-15.99671 42.36159,-44.56204 42.36177,-75.3458 6e-5,-2.75093 -0.13009,-5.49934 -0.38705,-8.23825 l -0.12506,-1.33014 -1.17358,-0.63461 C 137.94128,92.75317 123.51457,89.09909 108.85713,89.09898 h -0.0661 z"
       id="path1922" />
    <path
       style="fill:#640000;fill-opacity:1;stroke:none;stroke-width:3.96875;stroke-linecap:square;stroke-miterlimit:4;stroke-dasharray:none"
       d="m 108.72743,110.86175 a 85.686601,85.686601 0 0 0 -40.361881,10.15801 85.686601,85.686601 0 0 0 40.466271,62.33522 85.686601,85.686601 0 0 0 40.5169,-62.7326 85.686601,85.686601 0 0 1 -0.0501,0.39738 85.686601,85.686601 0 0 0 -40.46626,-10.15801 85.686601,85.686601 0 0 0 -0.0661,0 85.686601,85.686601 0 0 0 -0.0388,0 z"
       id="path2169" />
    <path
       style="fill:#ffc319;fill-opacity:1;stroke:none;stroke-width:3.96875;stroke-linecap:square;stroke-miterlimit:4;stroke-dasharray:none"
       d="m 108.61787,125.01696 a 74.789731,74.789731 0 0 1 0.15658,0 74.789731,74.789731 0 0 1 0.0579,0 74.789731,74.789731 0 0 1 33.40313,7.87444 74.789731,74.789731 0 0 1 -33.40365,44.64275 74.789731,74.789731 0 0 1 -33.403641,-44.64224 74.789731,74.789731 0 0 1 33.189701,-7.87495 z"
       id="path2187" />
    <path
       id="path2248"
       style="fill:#ffc319;fill-opacity:1;stroke-width:0.995048"
       d="m 90.213319,93.42789 -1.6428,0.50437 -0.81132,1.89395 1.21801,-0.37209 z m 16.587601,0.6904 c -0.56229,0.0151 -0.9997,0.20942 -1.31207,0.49247 -0.31231,0.28308 -0.51522,0.65524 -0.65577,1.02526 -0.17174,0.4258 -0.26548,0.92271 -0.28112,1.45418 v 7.92924 c 0.0156,0.54899 0.10938,1.04103 0.28112,1.45781 0.14047,0.36263 0.34346,0.70535 0.65577,0.97202 0.31237,0.28498 0.74978,0.43873 1.31207,0.42426 0.56235,-0.0145 0.98412,-0.19023 1.29657,-0.49144 0.31247,-0.28284 0.53117,-0.63613 0.6718,-1.00615 0.17187,-0.42577 0.26548,-0.92329 0.28112,-1.47328 v -7.93181 c -0.0156,-0.53084 -0.10927,-1.02347 -0.28112,-1.44024 -0.14068,-0.36261 -0.35933,-0.72265 -0.6718,-0.98909 -0.31245,-0.26641 -0.73422,-0.43828 -1.29657,-0.42323 z m 5.79398,0.0233 v 13.75421 l 2.07841,0.14829 c 0.99949,0.0155 1.67066,-0.40416 2.06086,-1.08675 0.39016,-0.68247 0.54624,-1.58711 0.54624,-2.61536 0,-0.69171 -0.0622,-1.25695 -0.18709,-1.696 -0.24969,-0.89691 -0.56195,-1.4432 -0.9834,-1.75443 0.39026,-0.40161 0.65569,-0.7565 0.82735,-1.19269 0.17166,-0.43616 0.21807,-0.91868 0.21807,-1.57303 0,-1.3648 -0.26525,-2.28181 -0.78031,-2.89956 -0.51517,-0.61791 -1.29574,-0.90041 -2.29547,-0.97462 z m -10.99521,0.28837 c -0.066,5.9e-4 -0.13383,0.004 -0.20413,0.0103 -0.56221,0.0522 -0.99933,0.27594 -1.31153,0.5793 -0.312131,0.3033 -0.515331,0.68781 -0.655771,1.06659 -0.17161,0.43651 -0.26501,0.93897 -0.28062,1.47071 v 7.91839 c 0.0156,0.54723 0.10901,1.03287 0.28062,1.43815 0.14036,0.35325 0.34364,0.6826 0.655771,0.92915 0.3122,0.26488 0.74932,0.3906 1.31153,0.34055 0.5624,-0.0501 0.98399,-0.25228 1.29657,-0.57309 0.31266,-0.30247 0.5316,-0.66977 0.67231,-1.04852 0.172,-0.43651 0.26601,-0.93961 0.28164,-1.49034 v -1.84899 l -1.57871,0.14263 v 1.84846 c 0,0.20134 -0.0157,0.36741 -0.0625,0.49972 -0.0782,0.28155 -0.21897,0.51353 -0.57828,0.54571 -0.14065,0.0126 -0.24955,-0.0322 -0.32763,-0.11679 -0.15616,-0.18727 -0.25,-0.43524 -0.26561,-0.81804 v -7.92199 c 0.0156,-0.18439 0.0313,-0.35058 0.0781,-0.50128 0.0781,-0.24503 0.21844,-0.51417 0.51519,-0.54155 0.17182,-0.0159 0.31258,0.0258 0.39069,0.11006 0.17187,0.20376 0.25011,0.45302 0.25011,0.81907 v 1.84846 l 1.57871,-0.14417 v -1.84949 c -0.0156,-0.52956 -0.10964,-1.01536 -0.28164,-1.4206 -0.14079,-0.35314 -0.35965,-0.699 -0.67231,-0.94464 -0.2735,-0.2149 -0.63064,-0.35187 -1.09244,-0.34777 z m 16.68013,0.16896 v 13.73714 l 1.68722,0.20156 V 94.8103 Z m -20.272141,0.19638 -1.68672,0.24495 v 13.71854 l 1.68672,-0.23514 z m 22.724691,0.12454 1.75287,14.02291 1.68672,0.28784 1.74564,-13.38368 -1.63661,-0.29247 -0.84283,7.38042 -0.0625,0.5674 -0.0936,-0.0165 -0.0625,-0.58859 -0.84386,-7.68326 z m -25.067201,0.22635 -4.87307,0.95342 v 2.06447 l 1.58956,-0.30901 v 11.61788 l 1.68722,-0.31522 V 97.52744 l 1.59629,-0.31007 z m 31.017231,0.86712 v 13.67461 l 3.85765,0.90694 v -2.05827 l -2.16783,-0.51316 v -3.75274 l 1.56064,0.37518 v -2.18903 l -1.56064,-0.37825 v -3.58532 l 2.16783,0.53226 v -2.05827 z m -19.88148,0.0279 c 0.14052,-0.004 0.26554,0.048 0.34367,0.13745 0.15618,0.21566 0.21857,0.47032 0.21857,0.83664 v 7.93131 c 0,0.20148 -0.0157,0.36666 -0.0625,0.49609 -0.0624,0.27639 -0.20293,0.49977 -0.49972,0.50747 -0.14049,0.004 -0.25003,-0.0483 -0.32813,-0.13798 -0.15619,-0.19741 -0.23411,-0.45151 -0.23411,-0.83614 v -7.93078 c 0,-0.18315 0.0158,-0.3483 0.0625,-0.4961 0.0624,-0.23974 0.20294,-0.50006 0.49969,-0.50797 z m -16.352491,0.15452 -3.85763,1.17356 v 13.41728 l 3.85763,-1.12448 v -2.03398 l -2.17453,0.6382 v -3.69332 l 1.56371,-0.46405 v -2.16112 l -1.56371,0.46768 v -3.52899 l 2.17453,-0.65733 z m 23.834221,0.0729 c 0.14068,0.0104 0.46868,0.0158 0.74983,0.26096 0.28109,0.24516 0.49969,0.71017 0.49969,1.66399 0,0.9538 -0.2186,1.38671 -0.49969,1.5906 -0.28115,0.20389 -0.60923,0.16115 -0.74983,0.15089 z m 17.19482,0.96015 v 13.61466 l 1.55287,0.46871 v -7.70908 l 0.0941,0.0294 0.14107,0.6723 1.63865,7.57267 1.49294,0.45011 V 98.79916 l -1.53946,-0.49143 v 7.69048 l -0.0935,-0.0289 -0.14004,-0.67025 -1.64071,-7.5897 z m -47.812081,0.85111 -1.68207,0.53589 v 13.53973 l 3.92018,-1.18287 v -1.85105 l -2.23811,0.68059 z m -2.33784,0.76687 -4.87309,1.90375 v 2.02521 l 1.58387,-0.61339 v 11.41635 l 1.68672,-0.61857 v -11.45045 l 1.6025,-0.62013 z m 57.626971,1.11725 c -0.38725,0.0203 -0.68633,0.19633 -0.91207,0.46509 -0.36164,0.44847 -0.50327,1.16557 -0.50335,1.88463 6e-5,0.35949 0.0472,0.73755 0.14161,1.11622 0.17304,0.76904 0.45625,1.56289 0.83301,2.37453 0.37627,0.81047 0.73618,1.55988 1.06453,2.22467 0.15623,0.32906 0.29673,0.65228 0.43719,0.95705 0.24951,0.615 0.43667,1.18721 0.43667,1.61645 0,0.84055 -0.18703,1.37776 -0.68627,1.18803 -0.35939,-0.13661 -0.54724,-0.49488 -0.65681,-0.96687 -0.1253,-0.46027 -0.14054,-1.02174 -0.14054,-1.57768 l -1.66555,-0.46043 c 0,0.98938 0.079,1.97289 0.42531,2.82358 0.34595,0.84966 0.95795,1.54765 2.03759,1.95442 0.91974,0.34653 1.49465,0.17021 1.85158,-0.30181 0.35644,-0.47135 0.48059,-1.24454 0.48059,-2.1182 0,-0.71318 -0.20159,-1.46838 -0.4961,-2.24224 -0.29482,-0.7747 -0.68328,-1.60438 -1.0723,-2.41744 -0.32718,-0.68244 -0.65445,-1.32998 -0.90432,-1.92958 -0.25008,-0.60018 -0.4222,-1.13366 -0.4222,-1.58181 0,-0.77081 0.1406,-1.23494 0.57825,-1.0785 0.26532,0.10573 0.43712,0.42461 0.54623,0.82579 0.10909,0.41892 0.12454,0.90816 0.12454,1.33739 l 1.6459,0.47181 c 0,-0.73102 -0.0927,-1.64179 -0.41807,-2.48513 -0.32578,-0.8265 -0.91644,-1.54561 -1.92961,-1.93476 -0.29911,-0.11346 -0.56346,-0.1574 -0.79581,-0.14521 z m 4.04886,1.49035 v 13.36402 l 3.85763,1.73014 v -1.99832 l -2.16162,-0.98083 v -3.65663 l 1.55752,0.72089 v -2.12752 l -1.55752,-0.72967 v -3.49435 l 2.16162,1.03197 v -1.99834 z m -68.375161,0.15399 -2.06136,0.97306 -1.7136,14.03532 1.62316,-0.7126 0.31004,-2.84687 1.62317,-0.72397 0.31419,2.58431 1.65417,-0.72654 z m 39.654431,0.1788 c 0.14068,0.0102 0.46868,-0.004 0.74983,0.25993 0.28109,0.26355 0.49969,0.82193 0.49969,1.94408 0,1.12212 -0.2186,1.64878 -0.49969,1.87171 -0.28115,0.22294 -0.60923,0.16203 -0.74983,0.15193 z m -40.640421,4.27466 0.047,0.32298 0.48524,3.98582 -1.15496,0.52088 0.48215,-4.42039 0.047,-0.36587 z" />
    <g
       id="g2292"
       transform="translate(984.45032,338.59027)">
      <path
         style="fill:#00001e;fill-opacity:1;stroke:none;stroke-width:5.29167"
         d="m -879.22807,-227.6272 c -0.17425,0.003 -0.34031,0.0441 -0.49812,0.11007 -0.15783,0.066 -0.3073,0.15713 -0.44837,0.2612 -0.14107,0.10408 -0.27374,0.22104 -0.39776,0.3387 -0.24806,0.23531 -0.46172,0.47325 -0.63978,0.61568 -0.98088,0.8514 -1.75619,1.5029 -2.38544,2.0065 -0.62925,0.50359 -1.1124,0.85928 -1.50897,1.11907 -0.19828,0.12989 -0.37497,0.23589 -0.53738,0.32433 -0.16242,0.0885 -0.31057,0.15935 -0.452,0.21934 -0.28285,0.11997 -0.5386,0.19605 -0.82671,0.28021 -0.14406,0.0421 -0.29156,0.10157 -0.43622,0.17765 -0.14467,0.076 -0.28651,0.16874 -0.41923,0.27719 -0.13273,0.10845 -0.25635,0.23268 -0.36459,0.37188 -0.10825,0.13921 -0.20111,0.29337 -0.27233,0.46171 -0.0712,0.16835 -0.12079,0.35085 -0.14245,0.5467 -0.0216,0.19584 -0.0153,0.40506 0.025,0.6268 0.0405,0.22176 0.11514,0.45605 0.23026,0.70208 0.11513,0.24603 0.27072,0.5038 0.47304,0.77249 0.40466,0.53738 0.69929,0.95831 0.91291,1.28742 0.21362,0.3291 0.34615,0.56646 0.42692,0.73688 0.0808,0.17041 0.10962,0.27393 0.11572,0.33525 0.006,0.0613 -0.0105,0.0805 -0.0208,0.0823 -0.23119,-0.0275 -0.4433,-0.0394 -0.63732,-0.0389 -0.19404,4e-4 -0.37007,0.0134 -0.52929,0.0349 -0.15924,0.0214 -0.30175,0.0515 -0.42854,0.087 -0.12679,0.0354 -0.23794,0.076 -0.33465,0.11836 -0.19343,0.0847 -0.32912,0.17625 -0.41639,0.24664 -0.0873,0.0704 -0.12605,0.11958 -0.12605,0.11958 0.18998,0.10529 0.35701,0.20892 0.5038,0.30956 0.14679,0.10064 0.27325,0.19841 0.3824,0.29196 0.21829,0.1871 0.36693,0.35761 0.46798,0.50177 0.10107,0.14415 0.15461,0.26196 0.18291,0.34375 0.0283,0.0818 0.0314,0.12747 0.0314,0.12747 -0.29378,0.0923 -0.5462,0.19773 -0.76299,0.31139 -0.21679,0.11366 -0.39802,0.23551 -0.54932,0.36116 -0.15128,0.12564 -0.27254,0.25499 -0.36985,0.3832 -0.0974,0.12823 -0.17057,0.25534 -0.22541,0.37673 -0.0548,0.12141 -0.0913,0.2372 -0.11511,0.34235 -0.0238,0.10516 -0.0353,0.1997 -0.0397,0.27921 -0.009,0.15902 0.01,0.25736 0.01,0.25736 0.18858,-0.0915 0.36923,-0.16559 0.54043,-0.21973 0.17119,-0.0541 0.33277,-0.0882 0.48295,-0.0995 0.15018,-0.0114 0.28901,1e-5 0.41458,0.0368 0.12555,0.0368 0.23793,0.0989 0.33525,0.18938 0.0973,0.0905 0.17956,0.20922 0.24502,0.35872 0.0655,0.14952 0.11415,0.32986 0.14405,0.54387 0.03,0.214 0.0413,0.46162 0.0324,0.74557 -0.009,0.28396 -0.0387,0.60415 -0.0905,0.96349 -0.0518,0.35934 -0.11897,0.69207 -0.20011,0.99991 -0.0811,0.30784 -0.17622,0.59079 -0.28386,0.85098 -0.10764,0.2602 -0.22782,0.49764 -0.35914,0.71403 -0.1313,0.21639 -0.27374,0.41174 -0.4259,0.58816 -0.15215,0.17644 -0.314,0.33395 -0.48416,0.47426 -0.17017,0.14031 -0.34862,0.26343 -0.53394,0.37148 -0.18534,0.10804 -0.37756,0.20101 -0.57524,0.28063 -0.19767,0.0796 -0.40081,0.14587 -0.60799,0.20091 -0.24523,0.0349 -0.48227,0.0805 -0.71118,0.13616 -0.22892,0.0557 -0.44967,0.12151 -0.66283,0.19667 -0.21316,0.0751 -0.41853,0.15969 -0.61649,0.25291 -0.19796,0.0933 -0.38846,0.19506 -0.57178,0.30491 -0.18332,0.10985 -0.35964,0.22779 -0.52889,0.35286 -0.16925,0.12507 -0.33148,0.25729 -0.48721,0.39616 -0.15572,0.13887 -0.30479,0.28435 -0.44755,0.43561 -0.14274,0.15125 -0.27916,0.3082 -0.40951,0.47042 -0.2607,0.32443 -0.49716,0.66945 -0.71158,1.02923 -0.21442,0.35979 -0.40686,0.73448 -0.57948,1.11828 -0.17261,0.38379 -0.32543,0.77663 -0.4607,1.17309 -0.13527,0.39646 -0.25291,0.79637 -0.35528,1.19415 -0.10238,0.39778 -0.18948,0.79344 -0.26344,1.18119 -0.0739,0.38776 -0.13473,0.76766 -0.18472,1.13404 -0.10001,0.73279 -0.1566,1.41146 -0.18757,1.99073 -0.031,0.57925 -0.0364,1.05923 -0.034,1.39423 0.002,0.335 0.0125,0.52505 0.0125,0.52505 l 1.54094,-0.47911 c 0.0469,0.191 0.0849,0.4043 0.11552,0.63126 0.0306,0.22696 0.0539,0.46758 0.0712,0.71341 0.0346,0.49165 0.0455,1.00395 0.0447,1.46849 -9.9e-4,0.92909 -0.0502,1.66719 -0.0502,1.66719 l 1.35966,-1.20425 c 0.18452,0.29378 0.3541,0.58074 0.51005,0.86029 0.15598,0.27956 0.29826,0.55182 0.42794,0.8166 0.25935,0.52957 0.4685,1.02906 0.63632,1.49622 0.16782,0.46716 0.29423,0.90203 0.38867,1.30238 0.0945,0.40034 0.15683,0.7661 0.19606,1.0952 0.0392,0.32911 0.0555,0.62162 0.0576,0.87508 0.002,0.25345 -0.01,0.46779 -0.0265,0.64117 -0.0334,0.34677 -0.0864,0.52909 -0.0864,0.52909 0.22661,-0.37312 0.46177,-0.72684 0.6871,-1.04745 0.22534,-0.32062 0.4409,-0.60804 0.62803,-0.84897 0.37427,-0.48185 0.63531,-0.77715 0.63531,-0.77715 l 1.14437,1.62065 1.1905,-2.04189 c 0.0664,0.2495 0.1138,0.53264 0.14771,0.81719 0.0339,0.28458 0.0541,0.57044 0.0662,0.8251 0.024,0.50933 0.015,0.89389 0.015,0.89389 l 1.31857,-0.61346 c 0.103,0.37999 0.17661,0.7288 0.22661,1.04827 0.05,0.31946 0.0763,0.60957 0.0848,0.87224 0.008,0.26266 -0.001,0.49795 -0.0227,0.70754 -0.0216,0.20959 -0.0555,0.39355 -0.0956,0.55376 -0.0403,0.16024 -0.087,0.29675 -0.13435,0.41134 -0.0474,0.1146 -0.0954,0.20735 -0.13839,0.28003 -0.0861,0.14534 -0.15215,0.21041 -0.15215,0.21041 0.0995,0.0166 0.20573,0.0164 0.31725,0.001 0.11151,-0.0152 0.22844,-0.0452 0.34941,-0.0882 0.12107,-0.0428 0.24633,-0.0986 0.37451,-0.1651 0.1282,-0.0666 0.25924,-0.14387 0.39211,-0.22985 0.26576,-0.17197 0.53854,-0.37882 0.80851,-0.60415 0.26998,-0.22532 0.53713,-0.46914 0.79192,-0.71504 0.50959,-0.49175 0.96936,-0.99183 1.30178,-1.36894 0.33241,-0.37712 0.53758,-0.63126 0.53758,-0.63126 l -0.59424,2.76683 c 0.17856,-0.0538 0.37566,-0.1422 0.58372,-0.25574 0.20805,-0.11353 0.42712,-0.25218 0.64988,-0.40648 0.44551,-0.3086 0.90553,-0.67966 1.321,-1.03734 0.41547,-0.35766 0.78635,-0.702 1.05332,-0.9568 0.26696,-0.25481 0.43015,-0.42004 0.43015,-0.42004 -0.0332,0.26897 -0.0817,0.53413 -0.14366,0.79495 -0.0619,0.26081 -0.13726,0.51715 -0.22377,0.76865 -0.0865,0.25149 -0.18416,0.49808 -0.29115,0.7391 -0.107,0.24103 -0.22338,0.47652 -0.34679,0.70592 -0.2468,0.45881 -0.52218,0.89333 -0.80992,1.29874 -0.28774,0.40542 -0.58769,0.78176 -0.88357,1.12454 -0.29585,0.34279 -0.58772,0.65189 -0.85888,0.92283 -0.27115,0.27094 -0.52166,0.50372 -0.73526,0.69358 -0.4272,0.3797 -0.70653,0.58796 -0.70653,0.58796 0,0 0.19734,-0.0179 0.54892,-0.062 0.35156,-0.0439 0.85738,-0.11376 1.47477,-0.21729 0.61739,-0.10355 1.34624,-0.24085 2.14367,-0.41964 0.39871,-0.0894 0.81465,-0.18911 1.24228,-0.30025 0.42765,-0.11114 0.86707,-0.2338 1.31292,-0.36865 0.44585,-0.13484 0.8982,-0.28197 1.35154,-0.44249 0.45335,-0.1605 0.90773,-0.33429 1.35784,-0.52241 0.45011,-0.18813 0.89598,-0.39069 1.33212,-0.6084 0.43616,-0.2177 0.86259,-0.45061 1.27407,-0.69985 0.41148,-0.24924 0.80795,-0.51485 1.18403,-0.79757 0.37607,-0.28274 0.73165,-0.5826 1.0616,-0.90077 0.32997,-0.31818 0.63432,-0.65465 0.90745,-1.01024 0.13656,-0.17778 0.2653,-0.36038 0.38564,-0.5479 0.12034,-0.1875 0.23227,-0.37997 0.33505,-0.57744 l -0.18128,3.36674 c 0,0 0.072,-0.0201 0.20576,-0.0705 0.1337,-0.0503 0.32899,-0.1309 0.57563,-0.25129 0.24663,-0.12039 0.54451,-0.28069 0.88336,-0.49086 0.33886,-0.21016 0.71868,-0.47021 1.12901,-0.78989 0.4103,-0.31967 0.85123,-0.69888 1.31229,-1.1478 0.23053,-0.22445 0.466,-0.4663 0.70531,-0.72676 0.23934,-0.26047 0.48246,-0.53972 0.72798,-0.83865 0.24553,-0.29895 0.49342,-0.61774 0.74254,-0.95762 0.24914,-0.33989 0.49949,-0.70079 0.74964,-1.08408 0.25015,-0.38329 0.50023,-0.78885 0.74881,-1.21801 0.24858,-0.42916 0.4957,-0.88196 0.74012,-1.35945 l 0.79656,2.87468 c 0,0 0.17447,-0.21092 0.46151,-0.60152 0.28704,-0.39059 0.68657,-0.96073 1.13628,-1.67871 0.22486,-0.35899 0.46229,-0.75504 0.70451,-1.18403 0.24221,-0.429 0.48922,-0.89102 0.73324,-1.38211 0.24401,-0.49109 0.48514,-1.01123 0.71542,-1.55651 0.23029,-0.54529 0.4497,-1.11566 0.65069,-1.70726 0.20101,-0.59157 0.38344,-1.20432 0.53962,-1.83429 0.15616,-0.62999 0.28619,-1.27723 0.382,-1.93771 0.0479,-0.33024 0.0873,-0.66372 0.11713,-1.00011 0.0299,-0.33637 0.0501,-0.67557 0.0601,-1.01709 0.01,-0.34154 0.01,-0.68557 -0.002,-1.03127 -0.0119,-0.34571 -0.0355,-0.69311 -0.0712,-1.042 -0.0358,-0.34889 -0.0839,-0.6992 -0.14547,-1.05028 -0.0616,-0.35108 -0.1365,-0.70306 -0.2258,-1.05535 -0.0893,-0.35229 -0.19303,-0.70485 -0.31199,-1.05737 -0.11896,-0.3525 -0.25307,-0.70482 -0.40365,-1.05656 -0.15056,-0.35173 -0.31745,-0.70293 -0.50157,-1.05291 -0.18412,-0.34998 -0.38554,-0.6988 -0.60516,-1.04603 -0.21961,-0.34724 -0.45737,-0.69283 -0.71442,-1.03633 -0.25705,-0.34351 -0.53331,-0.685 -0.82975,-1.02378 0,0 0.10642,-0.16763 0.27881,-0.46314 0.17247,-0.2955 0.41106,-0.71882 0.67516,-1.23015 0.26411,-0.51132 0.55364,-1.11058 0.82854,-1.75803 0.13744,-0.32373 0.27136,-0.65952 0.39636,-1.00233 0.12501,-0.34281 0.24112,-0.69267 0.34356,-1.04462 0.10243,-0.35195 0.19102,-0.70606 0.2608,-1.05716 0.0697,-0.35113 0.12069,-0.69925 0.14769,-1.03957 0.027,-0.34032 0.0301,-0.67285 0.004,-0.99242 -0.013,-0.15979 -0.0331,-0.31627 -0.0611,-0.46899 -0.0281,-0.15274 -0.0641,-0.30173 -0.10846,-0.44614 -0.0444,-0.14443 -0.0974,-0.28435 -0.15943,-0.41922 -0.0621,-0.13488 -0.13309,-0.26459 -0.21406,-0.38869 -0.081,-0.12407 -0.17181,-0.24261 -0.27294,-0.35468 -0.10113,-0.11204 -0.2125,-0.21766 -0.33506,-0.31643 -0.12256,-0.0987 -0.25617,-0.19053 -0.40142,-0.27475 -0.14524,-0.0842 -0.30222,-0.16098 -0.47142,-0.22945 -0.1692,-0.0685 -0.35065,-0.12882 -0.54508,-0.18027 -0.19441,-0.0515 -0.40186,-0.0941 -0.62276,-0.12727 -0.14193,-0.0252 -0.28999,-0.0655 -0.4429,-0.11897 -0.1529,-0.0535 -0.31059,-0.12021 -0.47183,-0.19808 -0.32247,-0.15573 -0.65897,-0.35614 -0.9989,-0.58534 -0.33992,-0.22919 -0.68332,-0.48717 -1.01953,-0.75792 -0.3362,-0.27075 -0.66511,-0.5544 -0.97643,-0.83481 -0.62264,-0.56082 -1.17445,-1.10902 -1.57047,-1.51706 -0.39601,-0.40802 -0.63633,-0.67577 -0.63633,-0.67577 0,0 -0.22656,-0.29528 -0.59281,-0.64523 -0.18313,-0.17497 -0.40114,-0.36375 -0.6432,-0.53596 -0.12104,-0.0861 -0.24808,-0.16805 -0.37977,-0.24219 -0.13171,-0.0741 -0.26806,-0.14038 -0.4077,-0.19505 -0.13963,-0.0546 -0.28266,-0.0978 -0.42752,-0.12543 -0.14485,-0.0277 -0.29148,-0.0399 -0.43884,-0.033 -0.14737,0.007 -0.29535,0.033 -0.44251,0.0819 -0.14714,0.0489 -0.29341,0.12082 -0.43764,0.21933 -0.1442,0.0985 -0.28631,0.22357 -0.42487,0.37916 -0.13857,0.1556 -0.27365,0.34167 -0.40385,0.56187 -0.13018,0.2202 -0.25561,0.4745 -0.37472,0.76682 -0.1191,0.29233 -0.23197,0.62266 -0.33727,0.99465 -0.2232,-0.11789 -0.45008,-0.22067 -0.67942,-0.30956 -0.22935,-0.0889 -0.46117,-0.16384 -0.69399,-0.22661 -0.23282,-0.0628 -0.46663,-0.11322 -0.70027,-0.15275 -0.23361,-0.0396 -0.46689,-0.0683 -0.69862,-0.0874 -0.46347,-0.0384 -0.92061,-0.0391 -1.36046,-0.0134 -0.43984,0.0257 -0.8625,0.0777 -1.25727,0.14447 -0.39479,0.0668 -0.76168,0.14804 -1.08995,0.23268 -0.32825,0.0846 -0.61787,0.1724 -0.85806,0.2519 -0.48059,0.15899 -0.76379,0.28467 -0.76379,0.28467 0.0129,-0.0324 0,-0.17077 -0.031,-0.3652 -0.0309,-0.19445 -0.0799,-0.44492 -0.139,-0.70148 -0.0591,-0.25655 -0.12829,-0.51917 -0.19971,-0.73788 -0.0714,-0.21872 -0.14506,-0.39353 -0.21305,-0.47446 -0.11087,-0.16591 -0.21995,-0.31319 -0.32696,-0.44351 -0.10701,-0.13031 -0.2119,-0.24354 -0.31503,-0.34133 -0.1031,-0.0977 -0.20439,-0.18012 -0.30349,-0.24846 -0.0991,-0.0684 -0.19636,-0.12276 -0.29155,-0.16469 -0.0952,-0.0419 -0.18843,-0.0714 -0.27961,-0.0901 -0.0912,-0.0185 -0.18035,-0.0264 -0.26749,-0.0246 z"
         id="path2250" />
      <path
         style="fill:#ffc319;fill-opacity:1;stroke:none;stroke-width:5.29168"
         d="m -873.29215,-223.22209 c -0.26897,0.01 -0.54895,0.0333 -0.83946,0.0742 -0.29051,0.041 -0.5915,0.099 -0.90259,0.17704 -0.31108,0.078 -0.6322,0.17602 -0.96287,0.29661 -0.33068,0.12058 -0.67084,0.26386 -1.02015,0.43258 -0.34929,0.16872 -0.70782,0.36273 -1.07476,0.58513 -0.36694,0.2224 -0.74235,0.47305 -1.12595,0.75469 -0.76723,0.56328 -1.42501,1.06592 -1.98849,1.51422 -0.56348,0.4483 -1.03263,0.84242 -1.42318,1.18847 -0.39054,0.34606 -0.70231,0.64403 -0.95074,0.90057 -0.24842,0.25654 -0.43365,0.47153 -0.57076,0.6513 -0.13712,0.17976 -0.22624,0.32434 -0.28286,0.44006 -0.0566,0.11572 -0.0807,0.20266 -0.0876,0.26707 -0.007,0.0644 0.003,0.10628 0.0152,0.13212 0.012,0.0258 0.0257,0.0356 0.0257,0.0356 0.26094,0.2312 0.47476,0.46648 0.64926,0.70107 0.17451,0.23459 0.30971,0.46846 0.41315,0.69722 0.10345,0.22876 0.17522,0.45236 0.22297,0.66607 0.0477,0.21371 0.0715,0.41756 0.0789,0.60698 0.007,0.18942 -0.002,0.36448 -0.019,0.52039 -0.0175,0.15589 -0.0435,0.2927 -0.0707,0.40587 -0.0541,0.22634 -0.11188,0.35792 -0.11188,0.35792 -0.0972,-0.27927 -0.19745,-0.53693 -0.29986,-0.77451 -0.1024,-0.23759 -0.20697,-0.45501 -0.313,-0.65413 -0.10602,-0.19912 -0.21354,-0.37976 -0.3217,-0.54366 -0.10816,-0.1639 -0.21696,-0.31099 -0.32574,-0.44289 -0.10881,-0.13191 -0.21761,-0.24871 -0.32555,-0.35185 -0.10795,-0.10315 -0.2151,-0.1927 -0.32069,-0.27031 -0.2112,-0.15522 -0.41618,-0.26258 -0.60901,-0.33505 -0.19284,-0.0724 -0.37343,-0.11007 -0.53598,-0.12565 -0.16254,-0.0155 -0.307,-0.009 -0.42731,0.006 -0.24061,0.0309 -0.38482,0.0979 -0.38482,0.0979 0.23631,0.15296 0.44142,0.29939 0.61953,0.43844 0.17809,0.13907 0.32918,0.27087 0.45725,0.39455 0.12808,0.12367 0.23324,0.23918 0.31948,0.34598 0.0863,0.10679 0.15356,0.20475 0.20618,0.29317 0.10521,0.17683 0.15133,0.31553 0.17116,0.40992 0.0198,0.0944 0.0134,0.14446 0.0134,0.14446 -0.22013,-0.0332 -0.41977,-0.0509 -0.60071,-0.0566 -0.18093,-0.006 -0.34315,5.1e-4 -0.48821,0.0155 -0.14507,0.015 -0.27309,0.0389 -0.38564,0.068 -0.11255,0.0292 -0.20961,0.0636 -0.29297,0.10015 -0.16672,0.0732 -0.27841,0.15488 -0.34842,0.21811 -0.07,0.0633 -0.0983,0.10804 -0.0983,0.10804 0.17157,0.0145 0.33282,0.0403 0.48437,0.0754 0.15155,0.0352 0.29332,0.08 0.4261,0.13293 0.13278,0.0529 0.25665,0.11388 0.37188,0.18169 0.11524,0.0679 0.22196,0.14234 0.3209,0.22216 0.19787,0.15963 0.3643,0.34047 0.5044,0.5309 0.1401,0.19045 0.25392,0.3905 0.34618,0.58879 0.0923,0.19827 0.16297,0.39489 0.21731,0.57804 0.0543,0.18316 0.0923,0.35287 0.11856,0.49793 0.0526,0.29015 0.0591,0.48115 0.0591,0.48115 -0.16833,-0.16835 -0.31158,-0.29784 -0.43177,-0.39738 -0.12017,-0.0995 -0.21729,-0.16915 -0.29337,-0.21771 -0.15214,-0.0971 -0.22013,-0.11006 -0.22013,-0.11006 -0.013,0.24117 -0.0356,0.47705 -0.0664,0.70713 -0.0308,0.23008 -0.07,0.45448 -0.11614,0.67294 -0.0924,0.43694 -0.21306,0.84998 -0.35205,1.23725 -0.139,0.38725 -0.29626,0.74871 -0.46192,1.08205 -0.16566,0.33334 -0.3397,0.63854 -0.51209,0.91371 -0.17238,0.27517 -0.3432,0.5203 -0.50238,0.73304 -0.15918,0.21275 -0.30673,0.39312 -0.43278,0.5392 -0.2521,0.29216 -0.41801,0.44674 -0.41801,0.44674 -0.48801,0.0882 -0.94559,0.20481 -1.37442,0.34579 -0.42882,0.14098 -0.82898,0.30648 -1.20243,0.49246 -0.37346,0.18598 -0.72007,0.39248 -1.042,0.61569 -0.32191,0.2232 -0.61907,0.46297 -0.89327,0.71563 -0.27421,0.25266 -0.52558,0.51818 -0.7559,0.79252 -0.23032,0.27434 -0.4396,0.55748 -0.62985,0.84573 -0.19025,0.28826 -0.36151,0.58169 -0.51554,0.87608 -0.15401,0.2944 -0.29074,0.5898 -0.41234,0.88256 -0.12159,0.29277 -0.22788,0.58279 -0.32089,0.86617 -0.093,0.28337 -0.17273,0.56011 -0.24098,0.82631 -0.1364,0.5324 -0.22731,1.02267 -0.2877,1.43977 -0.0604,0.41709 -0.0905,0.76107 -0.10542,1.00071 -0.0148,0.23963 -0.0145,0.37491 -0.0145,0.37491 0.12949,-0.20556 0.25493,-0.38061 0.37533,-0.52948 0.12029,-0.1489 0.23571,-0.27163 0.34496,-0.3727 0.10926,-0.10106 0.21244,-0.18031 0.30855,-0.24238 0.0962,-0.0621 0.18514,-0.10704 0.26607,-0.139 0.16185,-0.064 0.29134,-0.0765 0.38037,-0.073 0.089,0.004 0.13759,0.0229 0.13759,0.0229 0.15539,-0.23794 0.31587,-0.44595 0.48032,-0.62682 0.16446,-0.18086 0.33278,-0.33452 0.5038,-0.46393 0.17102,-0.12942 0.3447,-0.23448 0.51979,-0.31807 0.17506,-0.0836 0.35164,-0.14577 0.52827,-0.18917 0.17663,-0.0435 0.3534,-0.0681 0.52909,-0.0769 0.17568,-0.009 0.35018,-0.002 0.52241,0.0184 0.17224,0.0201 0.34218,0.0531 0.50846,0.0966 0.16627,0.0434 0.32898,0.0971 0.48679,0.15822 0.31564,0.12221 0.61174,0.27421 0.87852,0.43339 0.26677,0.15918 0.5042,0.32555 0.70207,0.47668 0.39576,0.30228 0.6337,0.54346 0.6337,0.54346 0.1829,0.11978 0.36061,0.25557 0.53313,0.40466 0.17252,0.14909 0.33978,0.31149 0.50177,0.48498 0.162,0.17349 0.31869,0.35794 0.47001,0.55094 0.15133,0.19299 0.29733,0.39454 0.43784,0.60213 0.28104,0.41518 0.54037,0.85463 0.77735,1.29874 0.23697,0.44411 0.4516,0.89287 0.6434,1.32667 0.19181,0.43379 0.3607,0.85261 0.50623,1.23683 0.14553,0.38422 0.26768,0.73384 0.3658,1.02924 0.19627,0.5908 0.29662,0.9647 0.29662,0.9647 0.0421,-0.23308 0.0697,-0.47618 0.0856,-0.72332 0.0159,-0.24714 0.0202,-0.49833 0.0159,-0.7472 -0.009,-0.49773 -0.0514,-0.98655 -0.1048,-1.4171 -0.0534,-0.43056 -0.11736,-0.80284 -0.16794,-1.06749 -0.0506,-0.26464 -0.0878,-0.42165 -0.0878,-0.42165 0.18776,0.15216 0.37866,0.33308 0.56914,0.53314 0.1905,0.20005 0.38059,0.41922 0.56632,0.64805 0.37149,0.45767 0.72597,0.95378 1.0335,1.41184 0.30755,0.45808 0.56814,0.87811 0.75185,1.18363 0.18372,0.30552 0.29055,0.49651 0.29055,0.49651 -0.01,-0.23631 -0.0369,-0.48462 -0.0769,-0.7385 -0.0399,-0.25386 -0.0929,-0.5133 -0.15418,-0.77127 -0.12261,-0.51594 -0.2788,-1.02662 -0.43257,-1.47822 -0.15377,-0.45159 -0.30512,-0.84411 -0.41801,-1.12372 -0.11289,-0.27962 -0.18735,-0.44634 -0.18735,-0.44634 0.33666,0.12302 0.62641,0.25413 0.87163,0.3816 0.24522,0.12747 0.44593,0.25129 0.60455,0.35973 0.31725,0.21689 0.46616,0.37228 0.46616,0.37228 -0.0226,-0.14243 -0.0711,-0.30996 -0.13878,-0.49408 -0.0677,-0.18412 -0.15439,-0.38482 -0.25333,-0.59363 -0.19788,-0.4176 -0.44471,-0.86759 -0.68588,-1.28195 -0.48236,-0.82874 -0.94205,-1.51504 -0.94205,-1.51504 0.48558,0.4338 0.90146,0.84746 1.25767,1.23907 0.3562,0.3916 0.65271,0.76115 0.89914,1.10713 0.24644,0.34599 0.4428,0.6684 0.5991,0.96531 0.1563,0.29692 0.27253,0.56834 0.35832,0.81276 0.0858,0.2444 0.14112,0.46181 0.17603,0.65028 0.0349,0.18846 0.0493,0.348 0.053,0.47709 0.007,0.25816 -0.0283,0.39413 -0.0283,0.39413 -0.26546,-0.25898 -0.51311,-0.46131 -0.73527,-0.61912 -0.22215,-0.15782 -0.41881,-0.27112 -0.58229,-0.35205 -0.16349,-0.0809 -0.29378,-0.12949 -0.38322,-0.15782 -0.0894,-0.0283 -0.13798,-0.0364 -0.13798,-0.0364 0.15215,0.35609 0.27158,0.69884 0.36399,1.02601 0.0924,0.32715 0.1578,0.63874 0.20211,0.93252 0.0443,0.29379 0.0675,0.56976 0.0752,0.82571 0.008,0.25594 0,0.49185 -0.0166,0.70551 -0.0169,0.21367 -0.0434,0.40507 -0.0736,0.57199 -0.0302,0.16692 -0.0642,0.30936 -0.0959,0.42509 -0.0636,0.23147 -0.11856,0.3561 -0.11856,0.3561 -0.18658,-0.40388 -0.36745,-0.75699 -0.54102,-1.06567 -0.17356,-0.30867 -0.33994,-0.57294 -0.49753,-0.79919 -0.15759,-0.22627 -0.30643,-0.41437 -0.44512,-0.57097 -0.13868,-0.15662 -0.26719,-0.28165 -0.38401,-0.38139 -0.11683,-0.0997 -0.22198,-0.1742 -0.31401,-0.22985 -0.0921,-0.0556 -0.17101,-0.0925 -0.23531,-0.11674 -0.12862,-0.0486 -0.19869,-0.0475 -0.19869,-0.0475 0.0679,0.34963 0.11173,0.68791 0.13616,1.01224 0.0244,0.32434 0.0295,0.63471 0.0204,0.92849 -0.009,0.29378 -0.0325,0.57097 -0.0652,0.82894 -0.0326,0.25797 -0.0744,0.49671 -0.12059,0.71361 -0.0923,0.4338 -0.20152,0.78019 -0.28771,1.01812 -0.0862,0.23794 -0.14932,0.36743 -0.14932,0.36743 -0.23308,-0.69601 -0.47153,-1.35798 -0.71018,-1.98363 -0.23865,-0.62565 -0.47748,-1.21498 -0.71179,-1.76552 -0.23429,-0.55053 -0.46404,-1.06217 -0.68407,-1.53283 -0.22003,-0.47067 -0.43035,-0.90036 -0.6262,-1.28641 -0.3917,-0.77208 -0.72515,-1.37016 -0.96065,-1.77522 -0.23552,-0.40506 -0.3731,-0.6171 -0.3731,-0.6171 0.0809,0.27192 0.15251,0.5453 0.21548,0.81882 0.063,0.27352 0.11736,0.54719 0.16409,0.81982 0.0935,0.54529 0.1562,1.08631 0.19504,1.61317 0.0389,0.52687 0.0538,1.03957 0.0518,1.52819 -0.002,0.48862 -0.021,0.95316 -0.0502,1.38373 -0.0291,0.43054 -0.0684,0.82711 -0.11087,1.17977 -0.0426,0.35264 -0.0882,0.66141 -0.1303,0.91634 -0.0842,0.50987 -0.15378,0.80446 -0.15378,0.80446 l 1.29491,-1.81286 c 0.12625,0.22336 0.23141,0.46945 0.31886,0.72899 0.0875,0.25953 0.15722,0.53253 0.21245,0.80991 0.0552,0.2774 0.096,0.5593 0.12565,0.83624 0.0296,0.27693 0.0479,0.5489 0.0585,0.80708 0.021,0.51634 0.0107,0.97684 -0.005,1.30825 -0.0157,0.33141 -0.0369,0.53374 -0.0369,0.53374 0.38199,-0.23632 0.73121,-0.47623 1.04988,-0.71523 0.31866,-0.23899 0.60678,-0.47708 0.86657,-0.70956 0.25978,-0.23248 0.49125,-0.45924 0.69661,-0.67598 0.20536,-0.21674 0.38463,-0.42348 0.54001,-0.61528 0.31078,-0.38362 0.52605,-0.70815 0.66365,-0.93678 0.13758,-0.22864 0.19746,-0.36136 0.19746,-0.36136 l 0.20719,2.79699 c 0.41761,-0.25574 0.80679,-0.51796 1.16966,-0.78504 0.36286,-0.26708 0.6993,-0.539 1.01123,-0.81376 0.31195,-0.27476 0.59953,-0.55236 0.86435,-0.83116 0.26484,-0.27881 0.50704,-0.55883 0.72859,-0.83805 0.22155,-0.27921 0.42247,-0.55761 0.60455,-0.8336 0.18208,-0.27597 0.34522,-0.54951 0.49166,-0.81861 0.14644,-0.2691 0.2761,-0.53374 0.3907,-0.79232 0.1146,-0.25858 0.21427,-0.51108 0.30086,-0.75549 0.0866,-0.24441 0.16015,-0.48074 0.22256,-0.70734 0.0624,-0.22661 0.11355,-0.44351 0.15559,-0.64867 0.0841,-0.41032 0.13132,-0.7741 0.15681,-1.07679 0.0255,-0.30269 0.0293,-0.54426 0.0267,-0.71017 -0.002,-0.1659 -0.0113,-0.25615 -0.0113,-0.25615 0.12302,0.0648 0.24025,0.14893 0.35144,0.24664 0.11118,0.0977 0.21629,0.209 0.31463,0.32797 0.19665,0.23795 0.36661,0.50664 0.50581,0.75914 0.13921,0.2525 0.24765,0.48883 0.3213,0.66201 0.0736,0.1732 0.11249,0.28327 0.11249,0.28327 0.0178,-0.33263 0.0243,-0.65783 0.0202,-0.97583 -0.004,-0.318 -0.0188,-0.6287 -0.0435,-0.93233 -0.0247,-0.30363 -0.0594,-0.60008 -0.10319,-0.88963 -0.0438,-0.28955 -0.0969,-0.57223 -0.15843,-0.84796 -0.0616,-0.27574 -0.13179,-0.54469 -0.20981,-0.80689 -0.078,-0.26219 -0.16391,-0.51769 -0.25696,-0.76662 -0.0931,-0.24893 -0.19315,-0.49123 -0.29985,-0.72717 -0.10669,-0.23593 -0.21993,-0.4655 -0.3389,-0.68872 -0.23793,-0.44644 -0.49898,-0.86756 -0.77775,-1.26475 -0.27875,-0.39721 -0.57521,-0.77034 -0.88376,-1.1205 -0.30855,-0.35015 -0.6293,-0.67741 -0.95661,-0.98271 -0.32732,-0.3053 -0.66121,-0.58877 -0.99627,-0.8514 -0.33506,-0.26262 -0.67117,-0.50441 -1.00294,-0.72655 -0.33177,-0.22214 -0.65919,-0.42457 -0.97664,-0.60841 -0.31744,-0.18384 -0.62504,-0.34899 -0.91715,-0.49671 -0.29211,-0.14774 -0.56875,-0.2781 -0.82449,-0.39191 -0.51149,-0.22763 -0.93921,-0.38943 -1.23906,-0.49449 -0.29985,-0.10506 -0.47183,-0.15337 -0.47183,-0.15337 0.36905,-0.002 0.72672,0.008 1.07356,0.0279 0.34683,0.0199 0.68269,0.05 1.008,0.0901 0.3253,0.0401 0.6402,0.09 0.94467,0.14871 0.30447,0.0588 0.59864,0.1264 0.88295,0.20253 0.28433,0.0761 0.55872,0.16061 0.82348,0.2527 0.26486,0.0921 0.52033,0.19195 0.76642,0.29865 0.24609,0.10668 0.48298,0.22021 0.71098,0.34011 0.22801,0.11989 0.44715,0.24603 0.65778,0.37774 0.21062,0.13172 0.41266,0.26898 0.60657,0.41113 0.19392,0.14216 0.37972,0.28927 0.55763,0.44047 0.35581,0.30241 0.68032,0.62146 0.97623,0.95175 0.29589,0.3303 0.56315,0.67181 0.80466,1.01893 0.2415,0.34712 0.45726,0.69985 0.64987,1.05272 0.19263,0.35285 0.36214,0.7058 0.51128,1.05331 0.14925,0.34753 0.27831,0.68964 0.3897,1.02075 0.11138,0.33111 0.20524,0.65138 0.28426,0.95499 0.079,0.30362 0.14324,0.5906 0.19545,0.85565 0.1044,0.5301 0.16065,0.97198 0.1908,1.28134 0.0302,0.30936 0.0342,0.4862 0.0342,0.4862 0.37877,-0.13758 0.74634,-0.30189 1.10249,-0.48903 0.35616,-0.18714 0.70089,-0.39706 1.03431,-0.62601 0.33342,-0.22894 0.65537,-0.47691 0.96591,-0.73991 0.31054,-0.26299 0.60961,-0.54106 0.89712,-0.83036 0.28752,-0.28928 0.5636,-0.58969 0.82792,-0.89752 0.26436,-0.30783 0.51711,-0.62302 0.75814,-0.94164 0.24103,-0.31862 0.47035,-0.64062 0.68791,-0.96227 0.21758,-0.32165 0.42334,-0.64292 0.6173,-0.95985 0.38793,-0.63385 0.72848,-1.25048 1.02116,-1.81893 0.29267,-0.56844 0.53738,-1.08861 0.73363,-1.5296 0.39253,-0.88199 0.59122,-1.44705 0.59122,-1.44705 -0.002,0.42119 -0.0146,0.83151 -0.0365,1.23157 -0.0217,0.40007 -0.0527,0.78981 -0.0927,1.16926 -0.0399,0.37944 -0.0887,0.74861 -0.14547,1.10795 -0.0568,0.35933 -0.12175,0.70871 -0.19424,1.04846 -0.0724,0.33975 -0.15247,0.66992 -0.23936,0.9906 -0.0869,0.32067 -0.1807,0.63184 -0.28062,0.93395 -0.10002,0.30211 -0.20636,0.59525 -0.31827,0.87931 -0.11191,0.28408 -0.22952,0.55917 -0.35205,0.82571 -0.24507,0.53307 -0.51006,1.03161 -0.79009,1.49763 -0.28003,0.46603 -0.57501,0.8995 -0.87993,1.30259 -0.3049,0.40309 -0.61988,0.77581 -0.93961,1.12008 -0.31973,0.34428 -0.64428,0.66017 -0.96875,0.94973 -0.32447,0.28958 -0.64878,0.55274 -0.96794,0.79171 -0.31916,0.23898 -0.63321,0.45375 -0.93698,0.64624 -0.30376,0.1925 -0.59736,0.36277 -0.87567,0.51291 -0.27831,0.15013 -0.54124,0.28003 -0.78403,0.3919 -0.48556,0.22377 -0.89004,0.37519 -1.17309,0.47062 -0.28306,0.0955 -0.44473,0.13496 -0.44473,0.13496 -0.0503,0.36739 -0.11515,0.72685 -0.19241,1.0778 -0.0772,0.35094 -0.16713,0.69339 -0.26728,1.02702 -0.10014,0.3336 -0.21056,0.65837 -0.32959,0.9738 -0.11904,0.31542 -0.24667,0.62139 -0.38057,0.91776 -0.13392,0.29637 -0.27424,0.58305 -0.41903,0.85949 -0.14479,0.27645 -0.29387,0.54275 -0.44552,0.79839 -0.30331,0.51129 -0.61649,0.98004 -0.92323,1.40294 -0.30674,0.42291 -0.60707,0.79999 -0.88519,1.12758 -0.27812,0.32759 -0.53398,0.60563 -0.75144,0.83096 -0.43493,0.45067 -0.71644,0.68995 -0.71644,0.68995 0.44178,-0.0618 0.87374,-0.14641 1.2953,-0.2509 0.42156,-0.10448 0.83264,-0.2289 1.23299,-0.36985 0.40033,-0.14095 0.7899,-0.29858 1.16804,-0.46981 0.37805,-0.17122 0.7449,-0.35605 1.09985,-0.55133 0.35496,-0.1953 0.69806,-0.40093 1.02885,-0.61408 0.33077,-0.21314 0.64915,-0.43378 0.95478,-0.65858 0.30563,-0.22479 0.59842,-0.45383 0.8779,-0.68407 0.2795,-0.23024 0.54582,-0.46167 0.79819,-0.69116 0.50475,-0.45896 0.9541,-0.9102 1.34448,-1.32889 0.39035,-0.41868 0.72167,-0.80487 0.98978,-1.13364 0.53622,-0.65754 0.82004,-1.0855 0.82004,-1.0855 l -0.0917,4.43161 c 0.35939,-0.24951 0.70259,-0.51373 1.03006,-0.78989 0.32746,-0.27617 0.63936,-0.56413 0.93617,-0.86131 0.29681,-0.29719 0.57852,-0.60356 0.84593,-0.91615 0.26741,-0.31258 0.52046,-0.63144 0.75975,-0.95377 0.23927,-0.32233 0.46478,-0.64816 0.67719,-0.97461 0.2124,-0.32647 0.4117,-0.65352 0.59848,-0.97846 0.1868,-0.32495 0.3612,-0.64772 0.52363,-0.96552 0.16244,-0.3178 0.31307,-0.63054 0.45241,-0.93557 0.27869,-0.61004 0.51244,-1.18899 0.70633,-1.71412 0.19389,-0.52513 0.3478,-0.99646 0.46697,-1.39162 0.23835,-0.7903 0.33748,-1.27566 0.33748,-1.27566 l 1.27265,4.72476 c 0.2621,-0.44751 0.50534,-0.88872 0.73061,-1.32343 0.22525,-0.43471 0.4325,-0.86296 0.62276,-1.28479 0.19026,-0.42182 0.36348,-0.83728 0.52059,-1.24613 0.15712,-0.40887 0.29807,-0.81126 0.42388,-1.20709 0.12582,-0.39583 0.23647,-0.78512 0.33283,-1.16784 0.0964,-0.38272 0.17849,-0.75885 0.24725,-1.12838 0.0688,-0.36955 0.12412,-0.73246 0.16713,-1.08873 0.0429,-0.35627 0.0735,-0.70594 0.0927,-1.04887 0.0191,-0.34293 0.0268,-0.67909 0.0239,-1.00861 -0.003,-0.32952 -0.0164,-0.65232 -0.0396,-0.96834 -0.0232,-0.31603 -0.056,-0.62522 -0.0976,-0.92768 -0.0415,-0.30246 -0.0917,-0.59819 -0.14972,-0.887 -0.058,-0.28882 -0.12398,-0.57084 -0.19667,-0.84594 -0.0727,-0.2751 -0.15223,-0.54336 -0.23773,-0.80466 -0.17101,-0.52261 -0.36588,-1.01751 -0.57704,-1.48448 -0.21118,-0.46698 -0.43864,-0.90602 -0.67517,-1.31675 -0.23654,-0.41074 -0.48208,-0.79313 -0.7292,-1.14701 -0.24711,-0.35387 -0.49579,-0.67921 -0.73869,-0.97562 -0.2429,-0.29642 -0.48001,-0.56388 -0.7039,-0.80223 -0.2239,-0.23835 -0.43468,-0.44755 -0.62479,-0.62722 -0.19012,-0.17968 -0.35965,-0.32979 -0.50118,-0.45018 -0.28305,-0.24078 -0.45402,-0.36257 -0.45402,-0.36257 0,0 -0.0207,0.0379 -0.086,0.10419 -0.0653,0.0664 -0.17512,0.16153 -0.35366,0.27597 -0.17855,0.11446 -0.42568,0.24832 -0.76562,0.39253 -0.33993,0.14421 -0.77264,0.29877 -1.32201,0.45443 -0.18427,0.0515 -0.36256,0.0865 -0.53536,0.10601 -0.1728,0.0195 -0.34009,0.0234 -0.50178,0.013 -0.16168,-0.0106 -0.31785,-0.0355 -0.46879,-0.074 -0.15094,-0.0387 -0.29665,-0.0909 -0.43723,-0.15559 -0.14058,-0.0647 -0.27591,-0.14181 -0.40647,-0.23065 -0.13058,-0.0889 -0.2562,-0.18943 -0.37715,-0.30047 -0.12094,-0.11103 -0.23713,-0.23252 -0.34881,-0.36378 -0.11166,-0.13126 -0.21893,-0.27212 -0.3217,-0.42165 -0.20555,-0.29906 -0.39373,-0.63285 -0.56591,-0.99323 -0.17218,-0.36038 -0.32845,-0.74746 -0.47023,-1.15347 -0.14175,-0.40602 -0.26889,-0.83101 -0.38319,-1.26699 -0.11431,-0.43597 -0.21572,-0.88288 -0.30552,-1.33313 -0.0898,-0.45027 -0.16808,-0.90371 -0.23632,-1.35257 -0.0683,-0.44886 -0.12639,-0.89328 -0.17603,-1.32505 -0.0992,-0.86355 -0.16442,-1.67723 -0.20697,-2.37837 -0.0426,-0.70114 -0.0626,-1.2897 -0.072,-1.70299 -0.009,-0.41329 -0.008,-0.6513 -0.008,-0.6513 0,0 -0.0636,-0.0536 -0.18675,-0.1386 -0.12318,-0.085 -0.30593,-0.20151 -0.54446,-0.32716 -0.23855,-0.12565 -0.53279,-0.26035 -0.87892,-0.3822 -0.17307,-0.0609 -0.35912,-0.11871 -0.55762,-0.17035 -0.1985,-0.0516 -0.40951,-0.0974 -0.63248,-0.13415 -0.22297,-0.0369 -0.45805,-0.0647 -0.7045,-0.0811 -0.24646,-0.0164 -0.50433,-0.0214 -0.77331,-0.012 z"
         id="path2252" />
      <path
         style="fill:#ffc319;fill-opacity:1;stroke:none;stroke-width:5.29168"
         d="m -866.15178,-225.08918 c -0.0921,0.01 -0.17701,0.0368 -0.25553,0.0783 -0.0785,0.0416 -0.15063,0.0976 -0.2167,0.1651 -0.0661,0.0675 -0.12621,0.14658 -0.18088,0.23409 -0.0547,0.0875 -0.10395,0.18351 -0.14831,0.28508 -0.0887,0.20316 -0.15788,0.42839 -0.21163,0.65211 -0.0538,0.22372 -0.0921,0.44588 -0.11938,0.64259 -0.0546,0.39344 -0.065,0.68528 -0.065,0.68528 0.009,0.91335 0.0239,1.78673 0.0479,2.61632 0.0239,0.82957 0.0571,1.61537 0.10257,2.35388 0.0455,0.73852 0.10329,1.42966 0.17704,2.06982 0.0737,0.64016 0.1634,1.2294 0.27213,1.7639 0.0544,0.26725 0.11347,0.52088 0.17785,0.76035 0.0644,0.23947 0.134,0.4648 0.20921,0.67558 0.0752,0.21077 0.15609,0.40679 0.243,0.58796 0.0869,0.18117 0.17978,0.34748 0.27921,0.49814 0.0994,0.15064 0.20547,0.28563 0.31825,0.40485 0.1128,0.11921 0.23233,0.22268 0.35934,0.30957 0.12701,0.0869 0.26139,0.1572 0.40345,0.21082 0.14205,0.0536 0.29182,0.0904 0.44977,0.10986 0.15795,0.0194 0.32346,0.0192 0.49509,9.9e-4 0.17165,-0.018 0.34947,-0.0536 0.53213,-0.105 0.18266,-0.0514 0.37024,-0.11856 0.56127,-0.1993 0.19102,-0.0807 0.38538,-0.17521 0.58209,-0.28123 0.39345,-0.21203 0.79573,-0.47055 1.19597,-0.75934 0.40022,-0.28878 0.79851,-0.60777 1.18422,-0.94082 0.38571,-0.33306 0.75888,-0.68014 1.10876,-1.025 0.34987,-0.34486 0.67643,-0.68745 0.96915,-1.01164 0.29272,-0.32419 0.55157,-0.62993 0.76582,-0.90097 0.21423,-0.27104 0.38388,-0.50736 0.49833,-0.69277 0.11445,-0.18542 0.20648,-0.36091 0.27779,-0.52666 0.0713,-0.16575 0.12197,-0.3218 0.15317,-0.46859 0.0312,-0.14679 0.043,-0.28421 0.0371,-0.41275 -0.006,-0.12855 -0.0298,-0.24832 -0.0697,-0.35934 -0.0401,-0.11102 -0.0964,-0.21333 -0.16753,-0.30754 -0.0711,-0.0943 -0.15707,-0.18026 -0.25635,-0.25837 -0.0992,-0.0781 -0.21188,-0.1483 -0.33627,-0.21103 -0.12441,-0.0628 -0.26079,-0.11803 -0.4073,-0.16611 -0.1465,-0.048 -0.33416,-0.12664 -0.55538,-0.23308 -0.22122,-0.10645 -0.47594,-0.24071 -0.7565,-0.39981 -0.28057,-0.15908 -0.58678,-0.3431 -0.91129,-0.54911 -0.32452,-0.20602 -0.66725,-0.43402 -1.02035,-0.68124 -0.35308,-0.24722 -0.71656,-0.51366 -1.08285,-0.79637 -0.36629,-0.2827 -0.73535,-0.58162 -1.09946,-0.89408 -0.3641,-0.31246 -0.72336,-0.63853 -1.06991,-0.97502 -0.34654,-0.3365 -0.68043,-0.68354 -0.99404,-1.03835 -0.1568,-0.1774 -0.30448,-0.32543 -0.44351,-0.44715 -0.13901,-0.12172 -0.26939,-0.21714 -0.39169,-0.28912 -0.12232,-0.072 -0.23651,-0.12053 -0.34315,-0.14872 -0.10666,-0.0282 -0.20577,-0.036 -0.29783,-0.0263 z"
         id="path2254" />
      <path
         style="fill:#ffc319;fill-opacity:1;stroke:none;stroke-width:5.29168"
         d="m -879.50929,-225.49647 c 0.0607,9.9e-4 0.11492,0.0172 0.16186,0.0495 l -2.18838,5.24435 c 0,0 -0.60536,0.46616 -1.35803,1.11685 -0.37633,0.32535 -0.78948,0.69682 -1.18221,1.07923 -0.39272,0.3824 -0.76499,0.77572 -1.05959,1.14476 0,0 -0.2525,-0.24198 -0.56004,-0.61891 -0.15377,-0.18847 -0.3213,-0.41056 -0.47789,-0.65312 -0.15661,-0.24257 -0.30229,-0.50562 -0.41235,-0.77552 -0.055,-0.13496 -0.10121,-0.27153 -0.13536,-0.4083 -0.0342,-0.13678 -0.0563,-0.27366 -0.0634,-0.40891 -0.007,-0.13525 10e-4,-0.26882 0.0271,-0.39919 0.0262,-0.13037 0.0704,-0.25762 0.13596,-0.37977 0.0656,-0.12216 0.1523,-0.23924 0.26342,-0.34983 0.11114,-0.1106 0.24665,-0.21468 0.40952,-0.31037 0.16288,-0.0957 0.35322,-0.18296 0.57401,-0.2604 0.22079,-0.0774 0.47203,-0.14506 0.75691,-0.20091 0.10683,-0.0194 0.22309,-0.0551 0.34658,-0.10441 0.12349,-0.0493 0.25423,-0.11238 0.38969,-0.18674 0.27092,-0.14872 0.56106,-0.34255 0.8516,-0.56186 0.29054,-0.21933 0.58149,-0.46415 0.85402,-0.71483 0.27254,-0.25069 0.52666,-0.50724 0.74356,-0.75003 0.21691,-0.2428 0.43218,-0.47426 0.63895,-0.68084 0.20679,-0.20657 0.40506,-0.38827 0.58798,-0.53152 0.1829,-0.14324 0.35043,-0.24805 0.49569,-0.30085 0.0726,-0.0264 0.13967,-0.0398 0.20031,-0.0385 z"
         id="path2256" />
      <path
         style="fill:#ffc319;fill-opacity:1;stroke:none;stroke-width:5.29168"
         d="m -856.46652,-213.40432 c 0,0 -0.64746,0.69925 -2.38262,2.48622 0,0 0.15215,0.10682 0.33181,0.25412 0.0899,0.0736 0.18655,0.15741 0.27456,0.24299 0.088,0.0856 0.16733,0.173 0.22237,0.25392 z"
         id="path2258" />
      <path
         id="path2260"
         style="fill:#ffc319;fill-opacity:1;stroke:none;stroke-width:5.29168"
         d="m -892.99568,-187.4804 c 0,0 0.0679,0.0955 0.17198,0.27516 0.104,0.17967 0.24399,0.44351 0.38806,0.78019 0.072,0.16833 0.14502,0.35488 0.21507,0.55822 0.07,0.20334 0.13718,0.42347 0.19727,0.65898 0.0601,0.23551 0.11326,0.4864 0.1554,0.75125 0.0421,0.26484 0.0732,0.54366 0.0895,0.83501 0,0 0.034,-0.003 0.0894,-0.0328 0.0554,-0.0295 0.13232,-0.0854 0.21811,-0.1906 0.0858,-0.10521 0.18047,-0.25979 0.27152,-0.4868 0.0455,-0.11351 0.0902,-0.24496 0.13233,-0.39757 0.0421,-0.15261 0.0817,-0.32636 0.11735,-0.52383 0,0 0.22661,0.20071 0.48559,0.5212 0.12949,0.16024 0.26707,0.35043 0.38846,0.56044 0.0607,0.10501 0.11735,0.21513 0.16692,0.3288 0.0496,0.11365 0.0921,0.23084 0.12444,0.35063 0,0 0.0469,-0.0178 0.11493,-0.0716 0.0679,-0.0538 0.157,-0.14365 0.24117,-0.28771 0.0421,-0.072 0.083,-0.15756 0.11937,-0.25898 0.0364,-0.10141 0.0684,-0.21872 0.0927,-0.35407 0.0243,-0.13536 0.0408,-0.28868 0.0465,-0.46253 0.006,-0.17384 3.9e-4,-0.36824 -0.019,-0.58513 -0.24926,-0.0453 -0.49565,-0.10997 -0.73607,-0.18857 -0.24041,-0.0786 -0.47486,-0.17117 -0.70005,-0.27192 -0.22519,-0.10077 -0.44124,-0.20973 -0.64482,-0.32151 -0.20359,-0.11178 -0.39474,-0.22641 -0.57037,-0.33809 -0.35124,-0.22337 -0.64016,-0.43541 -0.84128,-0.59161 -0.20111,-0.15619 -0.31441,-0.25655 -0.31441,-0.25655 z" />
      <path
         id="path2262"
         style="fill:#ffc319;fill-opacity:1;stroke:none;stroke-width:5.29168"
         d="m -893.97981,-190.47162 c 0,0 0.0291,0.12706 0.10097,0.32919 0.0718,0.20213 0.18633,0.47932 0.35711,0.77956 0.0854,0.15013 0.18484,0.30616 0.30004,0.46132 0.11521,0.15516 0.24613,0.30946 0.39455,0.45665 0.1484,0.1472 0.31413,0.28713 0.49914,0.41336 0.185,0.12622 0.38927,0.23874 0.61427,0.33101 0,0 -0.0235,-0.072 -0.0882,-0.20537 -0.0648,-0.13333 -0.17077,-0.32797 -0.33586,-0.5732 -0.1651,-0.24521 -0.38929,-0.54102 -0.69035,-0.87668 -0.15052,-0.16784 -0.32028,-0.34551 -0.51148,-0.53192 -0.1912,-0.18642 -0.40384,-0.38159 -0.64017,-0.58392 z" />
      <path
         id="path2264"
         style="fill:#ffc319;fill-opacity:1;stroke:none;stroke-width:5.29168"
         d="m -888.03621,-191.66293 c -0.37552,0.089 -0.71923,0.1974 -1.0333,0.31867 -0.31405,0.12127 -0.59849,0.25544 -0.85524,0.39656 -0.25675,0.14112 -0.48594,0.28905 -0.68953,0.43763 -0.20359,0.14859 -0.38159,0.29783 -0.53618,0.44149 -0.15457,0.14365 -0.28562,0.28176 -0.39534,0.40809 -0.10971,0.12633 -0.19808,0.24088 -0.26707,0.33749 -0.138,0.19322 -0.19869,0.31461 -0.19869,0.31461 0.40061,0.32778 0.76661,0.60418 1.10087,0.83441 0.33426,0.23023 0.63683,0.41425 0.91027,0.55721 0.27344,0.14296 0.51776,0.24501 0.73588,0.31098 0.2181,0.066 0.40996,0.0958 0.57825,0.0951 0.16828,-7.8e-4 0.31305,-0.0322 0.43703,-0.0894 0.12396,-0.0572 0.22702,-0.14003 0.31218,-0.2434 0.0852,-0.10338 0.15249,-0.22735 0.20436,-0.36662 0.0519,-0.13928 0.0884,-0.29399 0.11249,-0.45888 0.0241,-0.1649 0.0357,-0.33995 0.0375,-0.52019 0.002,-0.18025 -0.006,-0.36563 -0.0212,-0.55094 -0.03,-0.37064 -0.0879,-0.74123 -0.15195,-1.07052 -0.12807,-0.65857 -0.28022,-1.15226 -0.28022,-1.15226 z" />
      <g
         id="g2284"
         style="fill:#00001e;fill-opacity:1;stroke-width:1.00361"
         transform="matrix(0.99640273,0,0,0.99640273,-657.46212,96.81763)">
        <path
           style="fill:#00001e;fill-opacity:1;stroke:none;stroke-width:5.31077"
           d="m -221.06557,-317.26557 c 0,0 -0.31706,0.0776 -0.77223,0.25991 -0.22758,0.0912 -0.48983,0.20858 -0.76411,0.35556 -0.27428,0.14699 -0.56054,0.3236 -0.8368,0.53324 -0.13813,0.1048 -0.27385,0.21775 -0.40408,0.33951 -0.13024,0.12175 -0.25505,0.25216 -0.37181,0.39171 -0.11675,0.13953 -0.22539,0.28832 -0.32306,0.44652 -0.0977,0.15819 -0.18447,0.3259 -0.25748,0.50359 -0.073,0.17768 -0.13228,0.36525 -0.17504,0.56328 -0.0428,0.19803 -0.069,0.4066 -0.076,0.62582 -0.007,0.21924 0.005,0.44912 0.0402,0.69041 0.0345,0.24128 0.091,0.49382 0.1726,0.75802 0,0 0.0563,-0.21654 0.1856,-0.57263 0.0646,-0.17804 0.1474,-0.39087 0.25056,-0.62908 0.10317,-0.2382 0.22674,-0.50163 0.37262,-0.78076 0.14589,-0.27913 0.31407,-0.57397 0.50683,-0.87478 0.19277,-0.3008 0.41005,-0.60768 0.65386,-0.91093 0.2438,-0.30325 0.51424,-0.60294 0.81324,-0.88938 0.29902,-0.28645 0.62666,-0.55959 0.98504,-0.81001 z"
           id="path2266" />
        <path
           style="fill:#00001e;fill-opacity:1;stroke:none;stroke-width:5.31077"
           d="m -220.404,-313.9023 c -0.3917,0.1275 -0.74719,0.2624 -1.06951,0.40327 -0.32233,0.14087 -0.61157,0.28762 -0.87051,0.43902 -0.25894,0.15138 -0.48765,0.30735 -0.68918,0.46642 -0.20154,0.15906 -0.3758,0.3214 -0.52592,0.48531 -0.15012,0.16389 -0.27605,0.32937 -0.38074,0.49526 -0.10469,0.16588 -0.18818,0.33205 -0.25341,0.49708 -0.0652,0.16504 -0.11219,0.32906 -0.14398,0.49039 -0.0318,0.16133 -0.0482,0.31997 -0.0526,0.47475 -0.004,0.15479 0.003,0.3056 0.0207,0.45099 0.0171,0.1454 0.0437,0.28535 0.0763,0.4185 0.0654,0.26632 0.15567,0.50534 0.24713,0.70564 0.0915,0.2003 0.18415,0.362 0.25382,0.47353 0.0697,0.11153 0.11635,0.17301 0.11635,0.17301 0,0 -0.0413,-0.26421 -0.055,-0.66137 -0.007,-0.19857 -0.007,-0.43037 0.008,-0.67902 0.0155,-0.24866 0.0466,-0.51424 0.10173,-0.78015 0.0551,-0.26593 0.13431,-0.53222 0.24631,-0.78259 0.056,-0.12519 0.12027,-0.2465 0.19371,-0.36165 0.0734,-0.11515 0.15611,-0.22409 0.24916,-0.3251 0.093,-0.10101 0.19649,-0.194 0.31129,-0.27677 0.11479,-0.0828 0.24101,-0.15542 0.37971,-0.21585 0.13871,-0.0605 0.28988,-0.10856 0.45466,-0.14255 0.16476,-0.034 0.34309,-0.0538 0.53607,-0.0573 0,0 0.0459,0.16997 0.062,0.44105 0.008,0.13554 0.009,0.29647 -0.008,0.47393 -0.0164,0.17748 -0.0497,0.37148 -0.10946,0.57365 0,0 0.0987,-0.11373 0.26783,-0.28631 0.16915,-0.17259 0.40878,-0.40396 0.6902,-0.63943 0.14071,-0.11775 0.29186,-0.23658 0.44998,-0.34947 0.15812,-0.11289 0.32318,-0.2198 0.4916,-0.31413 0.16843,-0.0943 0.3403,-0.17613 0.51191,-0.23819 0.17163,-0.062 0.34298,-0.10454 0.51069,-0.12061 l -1.19459,2.13192 c 0,0 0.16547,-0.11024 0.43942,-0.26702 0.27395,-0.1568 0.65644,-0.36016 1.09063,-0.54624 0.2171,-0.093 0.44706,-0.18163 0.68289,-0.25808 0.23584,-0.0765 0.47746,-0.14066 0.71782,-0.18459 0.24035,-0.0439 0.47942,-0.0676 0.71008,-0.0631 0.11534,0.002 0.22866,0.0114 0.33892,0.0288 0.11023,0.0173 0.21745,0.0429 0.32082,0.0774 0,0 -0.46864,0.25725 -1.00392,0.59496 -0.26763,0.16886 -0.55199,0.35786 -0.80269,0.54481 -0.2507,0.18695 -0.4678,0.37181 -0.60106,0.53262 l 1.17633,0.18377 c 0,0 -0.15614,0.0219 -0.42034,0.0857 -0.26419,0.0637 -0.63639,0.16937 -1.06829,0.33708 -0.21595,0.0838 -0.44696,0.18315 -0.68674,0.30053 -0.23979,0.11738 -0.48839,0.25282 -0.73994,0.40876 -0.25158,0.15593 -0.50594,0.33249 -0.75721,0.53201 -0.25128,0.19951 -0.4994,0.42198 -0.73832,0.67009 l 1.89291,-0.29402 c 0,0 0.0356,0.12405 0.11636,0.31129 0.0807,0.18723 0.20648,0.43769 0.38682,0.6904 0.0902,0.12635 0.19386,0.25312 0.3125,0.37301 0.11863,0.1199 0.25218,0.23278 0.40165,0.33099 0.14948,0.0982 0.31503,0.18175 0.4977,0.24306 0.18268,0.0613 0.38241,0.10046 0.60065,0.10965 0.0873,0.007 0.1924,-0.005 0.30885,-0.0329 0.11644,-0.0283 0.24441,-0.0736 0.37708,-0.13401 0.13267,-0.0605 0.27014,-0.13611 0.40612,-0.2256 0.13598,-0.0895 0.27043,-0.1928 0.39678,-0.30824 0.12635,-0.11544 0.24463,-0.24304 0.34845,-0.38134 0.10381,-0.13832 0.19319,-0.28723 0.26154,-0.44531 0.0683,-0.15809 0.11568,-0.32536 0.13564,-0.50014 0.0199,-0.17478 0.0125,-0.35724 -0.0289,-0.54562 0,0 0.0297,-0.0344 0.0989,-0.0806 0.0692,-0.0463 0.17787,-0.10419 0.33524,-0.15128 0.15738,-0.0471 0.36359,-0.0833 0.62806,-0.0859 0.13225,-10e-4 0.27909,0.005 0.44166,0.0241 0.16257,0.0184 0.3408,0.0479 0.53607,0.0916 -0.13783,-0.24352 -0.28904,-0.4583 -0.44835,-0.64776 -0.15931,-0.18946 -0.32677,-0.35372 -0.49648,-0.49587 -0.16971,-0.14215 -0.34182,-0.2623 -0.51089,-0.36388 -0.16907,-0.10159 -0.33505,-0.18443 -0.49243,-0.25221 -0.15736,-0.0678 -0.30602,-0.12031 -0.44063,-0.16102 -0.13461,-0.0407 -0.25517,-0.0696 -0.35596,-0.09 -0.20159,-0.0408 -0.32449,-0.0477 -0.32449,-0.0477 l 1.63565,-1.12109 c -0.15738,-0.0965 -0.31236,-0.18066 -0.46482,-0.25362 -0.15243,-0.073 -0.30229,-0.13485 -0.44916,-0.18661 -0.29373,-0.10353 -0.5756,-0.16687 -0.84309,-0.1996 -0.26751,-0.0328 -0.52058,-0.0348 -0.75661,-0.0154 -0.23601,0.0194 -0.45495,0.0602 -0.65426,0.1131 -0.19928,0.0528 -0.37893,0.11777 -0.53627,0.1854 -0.15733,0.0677 -0.29233,0.13788 -0.40245,0.20164 -0.22027,0.1275 -0.34094,0.22864 -0.34094,0.22864 0.15162,-0.37217 0.30783,-0.67198 0.45688,-0.91234 0.14903,-0.24036 0.29093,-0.42138 0.41383,-0.55577 0.1229,-0.1344 0.22689,-0.22229 0.30012,-0.27657 0.0732,-0.0543 0.11575,-0.0749 0.11575,-0.0749 -0.21137,-0.0505 -0.42297,-0.0689 -0.63152,-0.0624 -0.20856,0.007 -0.41403,0.038 -0.61303,0.0871 -0.19901,0.0491 -0.39175,0.11593 -0.57445,0.1931 -0.18271,0.0772 -0.3555,0.16471 -0.51517,0.25545 -0.31932,0.18149 -0.58577,0.37554 -0.77243,0.52429 -0.18666,0.14876 -0.29362,0.2522 -0.29362,0.2522 z"
           id="path2268" />
        <path
           style="fill:#00001e;fill-opacity:1;stroke:none;stroke-width:5.31077"
           d="m -228.67742,-305.54583 c -0.0699,0.22742 -0.16633,0.4547 -0.28165,0.67821 -0.11531,0.22352 -0.24945,0.44328 -0.39474,0.65588 -0.14528,0.2126 -0.30177,0.41815 -0.46156,0.61284 -0.15977,0.19467 -0.32286,0.37849 -0.48165,0.54825 -0.31758,0.33952 -0.6177,0.62218 -0.83843,0.81996 -0.22072,0.19778 -0.36205,0.31067 -0.36205,0.31067 0,0 0.17137,-0.0284 0.42967,-0.12061 0.12915,-0.0461 0.28002,-0.10808 0.44206,-0.19047 0.16204,-0.0824 0.33525,-0.18519 0.50907,-0.3127 0.17382,-0.12753 0.34825,-0.27968 0.51272,-0.46115 0.16448,-0.18148 0.31901,-0.39231 0.45302,-0.63659 0.067,-0.12214 0.12895,-0.25261 0.18438,-0.39211 0.0554,-0.13949 0.10438,-0.28796 0.14559,-0.44592 0.0412,-0.15795 0.0747,-0.32545 0.0991,-0.50297 0.0243,-0.17752 0.0396,-0.3651 0.0445,-0.56328 z"
           id="path2270" />
        <path
           style="fill:#00001e;fill-opacity:1;stroke:none;stroke-width:5.31077"
           d="m -224.77809,-305.70544 c 0,0 -0.14593,0.23449 -0.29382,0.60207 -0.074,0.18379 -0.14833,0.40085 -0.2053,0.63862 -0.057,0.23778 -0.0965,0.49621 -0.10051,0.76269 -0.002,0.13324 0.005,0.2684 0.0228,0.40409 0.018,0.13569 0.0471,0.27196 0.0896,0.40693 0.0424,0.13496 0.0983,0.26873 0.16975,0.39983 0.0714,0.13108 0.15828,0.25952 0.26317,0.38358 0.10489,0.12405 0.22772,0.24372 0.37058,0.35758 0.14285,0.11386 0.30588,0.22195 0.4912,0.32246 0.18531,0.10051 0.39295,0.19338 0.62522,0.27738 0.23227,0.084 0.48912,0.15904 0.77284,0.22336 -0.14934,-0.0827 -0.28861,-0.17369 -0.4185,-0.27169 -0.12991,-0.098 -0.25044,-0.20296 -0.36226,-0.31353 -0.11182,-0.11055 -0.215,-0.22683 -0.31007,-0.34722 -0.0951,-0.1204 -0.18205,-0.24491 -0.26174,-0.37242 -0.15938,-0.255 -0.28927,-0.5216 -0.39516,-0.78867 -0.10589,-0.26707 -0.1878,-0.53463 -0.25098,-0.79193 -0.0632,-0.25731 -0.10766,-0.50428 -0.13889,-0.73 -0.0313,-0.22572 -0.0492,-0.43017 -0.0593,-0.60247 -0.0201,-0.34461 -0.008,-0.56065 -0.008,-0.56065 z"
           id="path2272" />
        <path
           style="fill:#00001e;fill-opacity:1;stroke:none;stroke-width:5.31077"
           d="m -223.36297,-303.73881 c 0,0 0.0241,0.15853 0.10823,0.41525 0.0421,0.12838 0.0991,0.28127 0.17565,0.4512 0.0766,0.16993 0.17277,0.35691 0.29281,0.55334 0.12003,0.19641 0.26389,0.40235 0.43636,0.61018 0.17249,0.20785 0.37346,0.4176 0.60735,0.62177 0.23391,0.20418 0.50084,0.40262 0.80514,0.58806 0.30429,0.18544 0.64606,0.35785 1.02971,0.50948 0.23893,0.0965 0.48362,0.18604 0.7369,0.28712 0.25328,0.10108 0.51509,0.21373 0.78847,0.35616 0.27339,0.14244 0.55829,0.31472 0.85752,0.53527 0.14962,0.11027 0.30277,0.23246 0.45993,0.36915 0.15716,0.1367 0.31828,0.28776 0.48369,0.45547 -0.007,-0.10568 -0.0296,-0.21725 -0.0677,-0.33302 -0.038,-0.11576 -0.0914,-0.23568 -0.1596,-0.35758 -0.0682,-0.12191 -0.1513,-0.24588 -0.24875,-0.36998 -0.0975,-0.12409 -0.20927,-0.24825 -0.33505,-0.37058 -0.12577,-0.12233 -0.26534,-0.24279 -0.4185,-0.35941 -0.15318,-0.11663 -0.31991,-0.2295 -0.49953,-0.33647 -0.17962,-0.10697 -0.37214,-0.20797 -0.57729,-0.30134 -0.20515,-0.0934 -0.42291,-0.17903 -0.65264,-0.25484 -0.22973,-0.0758 -0.46186,-0.18062 -0.69201,-0.30601 -0.23017,-0.12538 -0.45839,-0.27138 -0.68066,-0.42947 -0.22227,-0.15808 -0.43847,-0.32825 -0.6445,-0.50216 -0.20606,-0.17392 -0.40191,-0.35163 -0.58339,-0.5245 -0.36298,-0.34575 -0.66851,-0.67239 -0.8833,-0.91275 -0.21481,-0.24036 -0.33891,-0.39434 -0.33891,-0.39434 z"
           id="path2274" />
        <path
           id="path2276"
           style="fill:#00001e;fill-opacity:1;stroke:none;stroke-width:5.31077"
           d="m -231.32308,-294.57274 c -0.4586,-0.009 -0.75152,0.0234 -0.75152,0.0234 0,0 0.25622,0.0758 0.66888,0.21971 0.41266,0.14386 0.98179,0.35562 1.60782,0.62785 0.31301,0.13612 0.64022,0.28731 0.9692,0.45261 0.32898,0.16531 0.65991,0.34475 0.97996,0.5373 0.32005,0.19255 0.62939,0.39822 0.91559,0.61608 0.2862,0.21785 0.54906,0.44796 0.77649,0.68919 -0.077,-0.22859 -0.16729,-0.44088 -0.26924,-0.63802 -0.10198,-0.19714 -0.21551,-0.37907 -0.3385,-0.54704 -0.12301,-0.16797 -0.25551,-0.32207 -0.39556,-0.46318 -0.14006,-0.1411 -0.28771,-0.26929 -0.44084,-0.38581 -0.15313,-0.11652 -0.3117,-0.22133 -0.47394,-0.31555 -0.16224,-0.0942 -0.3281,-0.17778 -0.49546,-0.25199 -0.33475,-0.14843 -0.67578,-0.25921 -1.00717,-0.34135 -0.33141,-0.0821 -0.65305,-0.13562 -0.94931,-0.16976 -0.29625,-0.0341 -0.56709,-0.0489 -0.7964,-0.0534 z" />
        <path
           style="fill:#00001e;fill-opacity:1;stroke:none;stroke-width:5.31077"
           d="m -229.43422,-296.86142 c -0.19953,0.007 -0.38976,0.0224 -0.5704,0.0445 -0.36125,0.0442 -0.68399,0.11506 -0.96472,0.19636 -0.28076,0.0813 -0.51945,0.17302 -0.71315,0.25931 -0.38739,0.17259 -0.59415,0.32307 -0.59415,0.32307 0.0781,0 0.33774,-0.0631 0.757,-0.12651 0.20964,-0.0317 0.45909,-0.0635 0.74583,-0.0875 0.28674,-0.024 0.61062,-0.0402 0.96901,-0.0408 0.35838,-6.8e-4 0.75133,0.0144 1.17591,0.053 0.42458,0.0386 0.88087,0.10065 1.36618,0.19413 0.48531,0.0935 0.99961,0.21829 1.5402,0.38237 0.54059,0.16407 1.10756,0.36749 1.69797,0.6179 -0.30898,-0.21251 -0.61166,-0.40227 -0.90746,-0.57141 -0.2958,-0.16914 -0.58485,-0.31756 -0.86666,-0.44733 -0.28181,-0.12979 -0.55642,-0.24102 -0.8234,-0.33546 -0.26698,-0.0944 -0.52637,-0.17224 -0.77771,-0.23535 -0.25135,-0.0631 -0.49451,-0.11143 -0.7294,-0.14721 -0.23489,-0.0358 -0.4614,-0.059 -0.67902,-0.0715 -0.21762,-0.0125 -0.4265,-0.0143 -0.62603,-0.007 z"
           id="path2278" />
        <path
           style="fill:#00001e;fill-opacity:1;stroke:none;stroke-width:5.31077"
           d="m -229.20599,-299.12898 c -0.22928,4e-4 -0.45223,0.0152 -0.66846,0.0422 -0.21624,0.0272 -0.4258,0.0666 -0.62847,0.11636 -0.20267,0.0498 -0.39845,0.10982 -0.58704,0.17808 -0.1886,0.0683 -0.36999,0.14477 -0.544,0.22743 -0.34801,0.1653 -0.66636,0.35518 -0.95295,0.55332 -0.2866,0.19816 -0.5414,0.40444 -0.76249,0.60249 -0.22108,0.19803 -0.40835,0.38774 -0.55984,0.55272 -0.30295,0.32995 -0.46256,0.56085 -0.46256,0.56085 0,0 0.13895,-0.14807 0.41607,-0.37464 0.13856,-0.1133 0.3117,-0.24632 0.51922,-0.39008 0.20751,-0.14376 0.44928,-0.29826 0.72553,-0.45505 0.27625,-0.1568 0.58686,-0.31588 0.93163,-0.46826 0.34479,-0.15238 0.72384,-0.29814 1.13693,-0.42866 0.41309,-0.13051 0.86023,-0.24566 1.34141,-0.33687 0.48118,-0.0912 0.99641,-0.15845 1.54547,-0.1929 -0.25385,-0.0655 -0.50177,-0.11247 -0.7436,-0.14296 -0.24183,-0.0305 -0.47756,-0.0444 -0.70685,-0.0441 z"
           id="path2280" />
        <path
           style="fill:#00001e;fill-opacity:1;stroke:none;stroke-width:5.31077"
           d="m -233.76547,-300.28357 c -0.2481,0.11257 -0.48168,0.23413 -0.70177,0.36307 -0.22008,0.12896 -0.42661,0.26532 -0.62034,0.40754 -0.19374,0.14222 -0.37475,0.29031 -0.54379,0.44267 -0.16905,0.15236 -0.32609,0.30887 -0.47211,0.46825 -0.14603,0.15938 -0.28104,0.32164 -0.40571,0.48491 -0.12468,0.16327 -0.23899,0.32755 -0.34399,0.4916 -0.20999,0.3281 -0.3824,0.65473 -0.52369,0.96718 -0.14128,0.31243 -0.25154,0.61069 -0.33748,0.88249 -0.0859,0.2718 -0.14755,0.51711 -0.19149,0.7233 -0.0879,0.41238 -0.10497,0.66846 -0.10497,0.66846 0,0 0.12519,-0.2607 0.34803,-0.67882 0.22285,-0.41812 0.54332,-0.99357 0.93387,-1.62304 0.19528,-0.31474 0.40811,-0.64304 0.63497,-0.97184 0.22687,-0.32882 0.46768,-0.65806 0.71923,-0.97509 0.25157,-0.31703 0.51385,-0.62176 0.7832,-0.90118 0.26936,-0.27942 0.54577,-0.53354 0.82604,-0.7495 z"
           id="path2282" />
      </g>
      <path
         style="fill:#ffe680;stroke:none;stroke-width:5.29167"
         d="m -872.44785,-210.79025 c 0.1262,0.0103 0.22404,0.0309 0.29845,0.0538 0.14879,0.0457 0.20374,0.10076 0.20374,0.10076 0.0138,0.25637 0.006,0.49623 -0.0318,0.71199 -0.019,0.10788 -0.0458,0.20957 -0.0813,0.3045 -0.0355,0.0949 -0.0798,0.18311 -0.13414,0.26324 -0.0544,0.0801 -0.11887,0.15223 -0.19444,0.21567 -0.0755,0.0635 -0.16227,0.11815 -0.2614,0.16308 -0.0991,0.0449 -0.2106,0.0801 -0.33568,0.1046 -0.12507,0.0246 -0.26382,0.0384 -0.41719,0.0406 -0.15337,0.002 -0.29264,-0.02 -0.41882,-0.0611 -0.1262,-0.041 -0.23924,-0.10068 -0.34052,-0.17278 -0.1013,-0.0721 -0.19082,-0.15682 -0.26951,-0.24766 -0.0787,-0.0909 -0.14659,-0.188 -0.20496,-0.28529 -0.11674,-0.19457 -0.19519,-0.38966 -0.2444,-0.53615 -0.0492,-0.14651 -0.0693,-0.24442 -0.0693,-0.24442 0,0 0.16031,-0.10288 0.39494,-0.19789 0.11732,-0.0474 0.25318,-0.093 0.39696,-0.1226 0.1438,-0.0296 0.29554,-0.0434 0.44433,-0.0273 0,0 -0.0362,0.0231 -0.0824,0.0656 -0.0461,0.0424 -0.10257,0.10397 -0.14284,0.18048 -0.0201,0.0383 -0.0362,0.0802 -0.0451,0.12543 -0.009,0.0452 -0.0105,0.0938 -10e-4,0.14487 0.009,0.0511 0.0281,0.10502 0.0613,0.16106 0.0331,0.0561 0.0801,0.11412 0.14406,0.174 0.0639,0.0599 0.13757,0.10309 0.21608,0.13111 0.0785,0.028 0.16189,0.0408 0.24501,0.0404 0.0831,-4e-4 0.16603,-0.014 0.24381,-0.0395 0.0778,-0.0254 0.15034,-0.0625 0.21286,-0.10946 0.0625,-0.0469 0.11488,-0.10369 0.15215,-0.16873 0.0373,-0.0651 0.0594,-0.1384 0.0615,-0.21811 0.002,-0.0797 -0.0158,-0.16603 -0.0589,-0.25697 -0.0432,-0.091 -0.11123,-0.18654 -0.20942,-0.28528 0.18772,-0.0183 0.34221,-0.0183 0.46839,-0.008 z"
         id="path2286" />
      <path
         style="fill:#ffe680;stroke:none;stroke-width:5.29167"
         d="m -892.17606,-194.54936 c -0.16856,-0.006 -0.33854,-0.006 -0.50845,0.003 -0.16991,0.009 -0.33981,0.0266 -0.50824,0.054 -0.16844,0.0275 -0.33541,0.065 -0.49956,0.11371 -0.16415,0.0487 -0.32551,0.10887 -0.48255,0.1819 -0.15704,0.073 -0.30977,0.15898 -0.45687,0.25919 -0.14709,0.1002 -0.28851,0.21467 -0.42285,0.34497 0,0 0.0291,0.22013 0.0987,0.51634 0.0349,0.14811 0.0797,0.31523 0.13618,0.48336 0.0565,0.16813 0.12443,0.33729 0.20536,0.48944 0,0 0.10036,-0.12869 0.24219,-0.27173 0.0709,-0.0715 0.15223,-0.14661 0.23652,-0.21103 0.0843,-0.0644 0.17157,-0.11816 0.25452,-0.1469 0.0414,-0.0144 0.0818,-0.0223 0.12019,-0.0224 0.0384,-9e-5 0.0748,0.008 0.10825,0.0255 0.0335,0.0177 0.064,0.0453 0.0907,0.0846 0.0266,0.0392 0.0495,0.09 0.0676,0.15417 0.0362,0.12838 0.0531,0.31045 0.0437,0.56025 -0.009,0.2498 -0.0451,0.56733 -0.11472,0.96712 l 0.7122,0.78989 c 0,0 -0.003,-0.35933 0.0357,-0.70411 0.0194,-0.17236 0.0493,-0.34111 0.0955,-0.45948 0.0231,-0.0592 0.05,-0.10578 0.0819,-0.13393 0.0319,-0.0281 0.0686,-0.0379 0.11067,-0.0233 0,0 -0.0129,0.27193 0.013,0.6086 0.0129,0.16834 0.0357,0.35287 0.0744,0.52768 0.0389,0.17481 0.0939,0.33991 0.17157,0.46939 l 1.26901,-0.81578 c 0,0 -0.0518,-0.0664 -0.11615,-0.17562 -0.0644,-0.10926 -0.14122,-0.2614 -0.19139,-0.43298 -0.0251,-0.0858 -0.0435,-0.17634 -0.0504,-0.2689 -0.007,-0.0926 -0.002,-0.18715 0.0192,-0.28063 0.0212,-0.0935 0.059,-0.18584 0.11816,-0.27435 0.0591,-0.0885 0.13961,-0.1732 0.24643,-0.25089 0.10684,-0.0777 0.21215,-0.12601 0.31483,-0.15114 0.10268,-0.0251 0.20273,-0.0271 0.29864,-0.0119 0.0958,0.0151 0.18765,0.0476 0.27415,0.0909 0.0865,0.0432 0.16773,0.0973 0.24218,0.15639 0.14892,0.11817 0.27112,0.25575 0.35611,0.3638 0.085,0.10804 0.13272,0.18654 0.13272,0.18654 0,0 0.076,-0.0153 0.17764,-0.0654 0.0508,-0.025 0.1079,-0.0585 0.1651,-0.10318 0.0572,-0.0446 0.11453,-0.10056 0.16552,-0.16976 0.0509,-0.0692 0.0958,-0.15176 0.12785,-0.25028 0.0321,-0.0985 0.0516,-0.21295 0.0522,-0.34558 9.9e-4,-0.13262 -0.0177,-0.28348 -0.0614,-0.45503 -0.0435,-0.17155 -0.11229,-0.36378 -0.21265,-0.57907 0,0 -0.24764,-0.1222 -0.65271,-0.27293 -0.20253,-0.0753 -0.44446,-0.15779 -0.71442,-0.23572 -0.26996,-0.0779 -0.56793,-0.15133 -0.88275,-0.2084 -0.31484,-0.057 -0.6464,-0.0977 -0.98353,-0.11047 z"
         id="path2288" />
      <path
         style="fill:#ffffff;stroke:none;stroke-width:5.29167"
         d="m -892.00165,-196.24265 c -0.21599,0.002 -0.40648,0.0362 -0.5732,0.0896 -0.16672,0.0534 -0.30966,0.12605 -0.43015,0.20497 -0.12048,0.0789 -0.21851,0.1641 -0.2958,0.24258 -0.15458,0.15702 -0.2258,0.28732 -0.2258,0.28732 0,0 0.12706,-0.0413 0.35144,-0.087 0.22438,-0.0457 0.54609,-0.0958 0.93537,-0.11371 0.19464,-0.009 0.40614,-0.01 0.63086,0.002 0.22471,0.0119 0.46262,0.0364 0.70997,0.0783 0.24734,0.0418 0.50407,0.10122 0.76662,0.1823 0.26255,0.0811 0.5309,0.18392 0.80122,0.31341 -0.19099,-0.15377 -0.37453,-0.28963 -0.55074,-0.40951 -0.17622,-0.11989 -0.34522,-0.22377 -0.50703,-0.31301 -0.16181,-0.0892 -0.31636,-0.16378 -0.46414,-0.2256 -0.14779,-0.0618 -0.28873,-0.11087 -0.42287,-0.1485 -0.13415,-0.0377 -0.26153,-0.0639 -0.3824,-0.0805 -0.12088,-0.0166 -0.23536,-0.0239 -0.34335,-0.0229 z"
         id="path2290" />
    </g>
    <text
       xml:space="preserve"
       style="font-style:normal;font-variant:normal;font-weight:normal;font-stretch:normal;font-size:9.44396px;line-height:1.25;font-family:'League Gothic';-inkscape-font-specification:'League Gothic';fill:#640000;fill-opacity:1;stroke:none;stroke-width:0.264583"
       x="102.76883"
       y="172.33203"
       id="text2296"><tspan
         sodipodi:role="line"
         id="tspan2294"
         x="102.76883"
         y="172.33203"
         style="font-style:normal;font-variant:normal;font-weight:normal;font-stretch:normal;font-family:'League Gothic';-inkscape-font-specification:'League Gothic';fill:#640000;fill-opacity:1;stroke-width:0.264583">2018</tspan></text>
  </g>
</svg>
